<?xml version="1.0" ?><svg viewBox="0 0 512 512" xmlns="http://www.w3.org/2000/svg"><title/><g data-name="24hours_7days" id="_24hours_7days"><path d="M456,248a7.9979,7.9979,0,0,0-8,8,192.0091,192.0091,0,1,1-71.436-149.4219H342.8281a8,8,0,0,0,0,16h54.5938a8.031,8.031,0,0,0,8-8V59.9844a8,8,0,1,0-16,0V96.4609a207.9878,207.9878,0,0,0-280.5,306.6172A208,208,0,0,0,464,256,7.9979,7.9979,0,0,0,456,248Z"/><path d="M300.1914,198.5859l-40.7656,112a7.9976,7.9976,0,1,0,15.0312,5.4688l40.7657-112a7.9976,7.9976,0,0,0-15.0313-5.4688Z"/><path d="M188.4844,241.5313a29.3557,29.3557,0,0,0-8.6524-20.8907c-11.164-11.1718-30.6172-11.1718-41.7812,0a29.3437,29.3437,0,0,0-8.6563,20.8907,8,8,0,0,0,16,0,13.4662,13.4662,0,0,1,3.9688-9.5782,13.8555,13.8555,0,0,1,19.1562,0,13.5422,13.5422,0,0,1,0,19.1485l-36.7812,36.7812a7.9993,7.9993,0,0,0,5.6562,13.6563h43.09a8,8,0,0,0,0-16H156.707l23.125-23.125A29.3376,29.3376,0,0,0,188.4844,241.5313Z"/><path d="M234.09,301.5391a7.9979,7.9979,0,0,0,8-8v-11.93h4.129a8,8,0,0,0,0-16H242.09v-45.625a8.0028,8.0028,0,0,0-14.6914-4.3906l-35.164,53.625a8.0017,8.0017,0,0,0,6.6914,12.3906H226.09v11.93A7.998,7.998,0,0,0,234.09,301.5391Zm-20.3515-35.93,12.3515-18.836v18.836Z"/><path d="M342.9531,293.5391a8,8,0,0,0,16,0V277.07a72.2724,72.2724,0,0,1,21.3047-51.43,7.9993,7.9993,0,0,0-5.6562-13.6562h-47.293a8,8,0,0,0,0,16h30.4258A88.1067,88.1067,0,0,0,342.9531,277.07Z"/></g></svg>