<?xml version="1.0" ?><!DOCTYPE svg  PUBLIC '-//W3C//DTD SVG 1.1//EN'  'http://www.w3.org/Graphics/SVG/1.1/DTD/svg11.dtd'><svg enable-background="new 0 0 85 85" height="85px" id="Layer_1" version="1.1" viewBox="0 0 85 85" width="85px" xml:space="preserve" xmlns="http://www.w3.org/2000/svg" xmlns:xlink="http://www.w3.org/1999/xlink"><g><line fill="none" stroke="#394553" stroke-linejoin="round" stroke-miterlimit="10" stroke-width="2.5" x1="67.252" x2="71.373" y1="22.876" y2="12.726"/><line fill="none" stroke="#394553" stroke-linejoin="round" stroke-miterlimit="10" stroke-width="2.5" x1="72.274" x2="76.496" y1="24.942" y2="14.563"/><path d="M58.987,51.502   c1.978-1.1,3.543-2.234,4.931-3.783c0,0,3.99-4.443,9.49-22.275l-7.352-3c0,0-7.189,17.375-13.939,16.25l-9.053-2.042l-23.85-5.609   c0,0-9.805-3.076-10.705,6.214c0,0-0.457,13.589,7.139,19.142c0,0,1.623,1.303,7.937,1.523" fill="none" stroke="#394553" stroke-linejoin="round" stroke-miterlimit="10" stroke-width="2.5"/><circle cx="41.972" cy="58.607" fill="none" r="13.667" stroke="#394553" stroke-linejoin="round" stroke-miterlimit="10" stroke-width="2.5"/></g><circle cx="35.29" cy="60.732" fill="#394553" r="1.826"/><circle cx="42.155" cy="59.375" fill="#394553" r="1.826"/><circle cx="49.02" cy="58.016" fill="#394553" r="1.826"/><circle cx="46.654" cy="64.09" fill="#394553" r="1.826"/><circle cx="39.791" cy="65.449" fill="#394553" r="1.826"/></svg>