<?xml version="1.0" ?><svg data-name="Layer 1" id="Layer_1" viewBox="0 0 128 128" xmlns="http://www.w3.org/2000/svg"><title/><path d="M38.98438,28a14,14,0,1,0-14.002-14A14.01677,14.01677,0,0,0,38.98438,28Zm0-24a10,10,0,1,1-10.002,10A10.01281,10.01281,0,0,1,38.98438,4Z"/><path d="M65.17188,119.82813A3.97128,3.97128,0,0,0,67.998,120.999H68.002l34.99512-.00977a4.00628,4.00628,0,0,0,3.99707-3.99609l.0332-32.48828,5.2666,3.34375a4.21542,4.21542,0,0,0,5.84668-1.16211l6.14844-9.2041a4.21591,4.21591,0,0,0-1.1748-5.85645L110.291,63.12109A12.70186,12.70186,0,0,0,103.25293,61H99.0874L87.791,53.38629V48.17871a1.32227,1.32227,0,0,1,2.64453,0,2,2,0,0,0,4,0,5.32514,5.32514,0,0,0-3.3042-4.91858,5.24244,5.24244,0,0,0,.856-3.724V35.583A4.61646,4.61646,0,0,0,87.34766,31H27.126C18.94043,31,13,37.40137,13,46.22559L13.06055,76.958c0,2.52734,1.63672,4.09668,4.26855,4.09668l6.71582.01074v41.02441C24.0918,125.51465,26.24609,128,29.16895,128H47.80469a6.40048,6.40048,0,0,0,6.20605-6.10645l.02838-30.063a8.109,8.109,0,0,1-3.52155-2.92035l-.475-.71106-.0318,33.6925A2.40809,2.40809,0,0,1,47.80469,124H41.05078V86.14258a2,2,0,0,0-4,0V124H29.16895c-1.083,0-1.124-1.9375-1.124-1.9375V55.08008a2,2,0,0,0-4,0V77.06543L17.332,77.05469a2.36144,2.36144,0,0,1-.26955-.01367c-.001-.02539-.00194-.05469-.00194-.08691L17,46.22168C17,40.63574,20.13086,35,27.126,35H87.34766a.61422.61422,0,0,1,.63965.583v4.05762A1.94083,1.94083,0,0,0,88,39.86621a1.60465,1.60465,0,0,1-.10645,1.04785.63393.63393,0,0,1-.40723.09668H55.80762c-3.42578,0-5.72656,3.31152-5.72656,6.40234l-.01758,18.62115L54.066,63.3797,54.08105,47.415c0-1.08887.77051-2.4043,1.72656-2.4043H84.862a5.27019,5.27019,0,0,0-1.071,3.168v5.20624L72.4942,61H68.72949a12.6987,12.6987,0,0,0-7.03711,2.12109L48.86816,71.627a4.21729,4.21729,0,0,0-1.1748,5.85547l6.14941,9.2041a4.21361,4.21361,0,0,0,5.85254,1.15723L64,84.94141V116.999A3.97157,3.97157,0,0,0,65.17188,119.82813ZM94.93646,63a13.17844,13.17844,0,0,1-8.42279,3.00684h-.043A13.3636,13.3636,0,0,1,77.46,62.47559l8.33-5.61523L94.899,63ZM94.703,67.95245C93.852,71.07019,91.184,74,87.9082,74h-3.834c-3.52271,0-6.34332-3.38782-6.95581-6.75433a17.31638,17.31638,0,0,0,9.3396,2.76117h.05664A17.19665,17.19665,0,0,0,94.703,67.95245Zm-37.23718,16.57a.19815.19815,0,0,1-.16113.03223.20618.20618,0,0,1-.13574-.09082l-6.14941-9.2041a.21592.21592,0,0,1,.06055-.2998l12.82324-8.50488A8.70545,8.70545,0,0,1,68.72949,65h4.26172v.917c0,6.43652,5.17871,12.083,11.083,12.083h3.834c5.90428,0,11.083-5.64648,11.083-12.083V65h4.26172a8.70625,8.70625,0,0,1,4.82715,1.45508L120.90234,74.959a.2113.2113,0,0,1,.09277.13867.20831.20831,0,0,1-.03223.16211l-6.14844,9.2041a.20589.20589,0,0,1-.13672.09082.24944.24944,0,0,1-.2002-.05762l-8.374-5.31738a2.00063,2.00063,0,0,0-3.07227,1.68652l-.03711,36.123L68,116.999V81.18066a2,2,0,0,0-3.11816-1.6582Z"/></svg>