<?xml version="1.0" ?><svg id="Layer_1" style="enable-background:new 0 0 100 100;" version="1.1" viewBox="0 0 100 100" xml:space="preserve" xmlns="http://www.w3.org/2000/svg" xmlns:xlink="http://www.w3.org/1999/xlink"><path d="M28.664,52.875l1.027-9.276c0.333-2.231,3.787-4.141,6.381-4.141l8.81-2.766c0.29,0.606,0.808,1.242,1.707,1.815  c1.036,0.661,2.223,0.992,3.41,0.992c1.187,0,2.374-0.33,3.41-0.992c0.89-0.568,1.406-1.197,1.699-1.798l8.478,2.696l0.341,0.053  c2.594,0,6.048,1.911,6.375,4.099l1.033,9.319l0.137,1.24l2.233-0.248l-1.175-10.601c-0.55-3.682-5.21-5.969-8.421-6.054  l-8.658-2.753v-1.324c2.426-1.951,4.018-5.159,4.018-8.786c0-5.935-4.248-10.764-9.47-10.764s-9.47,4.829-9.47,10.764  c0,3.627,1.592,6.835,4.018,8.786v1.324l-8.658,2.753c-3.211,0.085-7.871,2.373-8.427,6.096l-1.169,10.558l2.233,0.248  L28.664,52.875z M50,15.833c3.983,0,7.223,3.821,7.223,8.518c0,3.028-1.351,5.686-3.377,7.197c-0.7,0.522-1.478,0.91-2.313,1.123  c-0.376,0.097-0.764,0.151-1.159,0.175c-0.125,0.007-0.248,0.022-0.375,0.022s-0.25-0.015-0.375-0.022  c-0.395-0.024-0.783-0.079-1.158-0.175c-0.835-0.213-1.613-0.601-2.313-1.123c-2.026-1.51-3.378-4.169-3.378-7.197  C42.776,19.654,46.017,15.833,50,15.833z M53.206,35.228c0,0.122-0.007,0.412-0.301,0.78c-0.149,0.185-0.366,0.39-0.704,0.605  c-1.337,0.854-3.065,0.854-4.402,0c-0.343-0.219-0.562-0.426-0.711-0.614c-0.287-0.364-0.294-0.649-0.294-0.771v-0.303v-0.459  c0.221,0.09,0.443,0.173,0.671,0.245c0.783,0.247,1.603,0.39,2.452,0.398c0.028,0,0.055,0.005,0.083,0.005  c0.028,0,0.055-0.004,0.082-0.004c0.85-0.009,1.67-0.151,2.453-0.399c0.228-0.072,0.45-0.155,0.671-0.245v0.459V35.228z   M64.767,52.875V45h2.247v7.874v1.149h-2.247V52.875z M32.987,52.875V45h2.247v7.874v1.149h-2.247V52.875z M83.31,66.258  l-10.895-1.595l-1.737-3.546l4-3.928L57.609,54.69l-0.967-1.815L50,40.402l-6.642,12.473l-0.967,1.815l-17.069,2.498l4,3.928  l-1.737,3.546L16.69,66.258l7.883,7.74L22.71,84.941l9.757-5.167l3.124,1.655l-0.849,4.985L50,78.332l15.258,8.081l-0.849-4.985  l3.124-1.655l9.757,5.167l-1.863-10.943L83.31,66.258z M67.534,77.232l-3.521,1.865l-1.668-9.797l6.644-6.525l1.93,3.939l7.59,1.112  l-5.492,5.393l1.294,7.603L67.534,77.232z M59.608,80.879l-1.046-0.554L50,75.791l-8.577,4.542l-1.2,0.636l-1.5,0.794l-1,0.53  l0.157-0.923l0.199-1.166l0.53-3.112l0.57-3.346l0.033-0.193l0.322-1.89l0.535-3.143l-1.422-1.396l-1.359-1.334l-1.229-1.207  l-2.41-2.367l-1.594-1.566l-0.845-0.829l-0.837-0.822l-0.247-0.243l0.454-0.067l3.269-0.479l9.993-1.462l2.063-3.874L50,45.181  l4.097,7.693l2.063,3.874l9.701,1.42l1.87,0.274c0.017,0.003,0.032,0.003,0.048,0.007l1.715,0.251l0.381,0.056l-0.239,0.235  l-0.845,0.829l-0.844,0.829l-1.595,1.566l-2.41,2.366l-1.229,1.207l-1.359,1.334l-1.422,1.396l0.535,3.143l0.322,1.89l0.033,0.193  l0.57,3.345l0.53,3.112l0.199,1.166l0.157,0.923l-0.95-0.503L59.608,80.879z M26.984,73.218l-5.492-5.393l7.589-1.112l1.93-3.938  l6.644,6.524l-1.668,9.797l-3.521-1.865l-6.777,3.589L26.984,73.218z M34.256,24.196l-4.974-0.02l0.009-2.246l4.974,0.02  L34.256,24.196z M36.508,27.233l0.849,2.08l-4.802,1.961l-0.849-2.08L36.508,27.233z M36.443,18.931l-4.808-1.996l0.862-2.075  l4.808,1.997L36.443,18.931z M70.709,24.208l-4.974-0.021l0.01-2.246l4.974,0.021L70.709,24.208z M63.492,18.904l-0.849-2.08  l4.802-1.96l0.849,2.08L63.492,18.904z M63.558,27.206l4.808,1.997l-0.862,2.075l-4.808-1.997L63.558,27.206z M51.882,66.381h4.858  v0.283v1.136v0.203v0.624h-0.967H54.17h-8.339h-1.603H43.26v-0.624v-0.203v-1.136v-0.283h4.858H51.882z M45.507,70.874h8.986v2.247  h-8.986V70.874z M50,64.134c1.859,0,3.37-1.511,3.37-3.37c0-1.858-1.511-3.37-3.37-3.37c-1.858,0-3.37,1.512-3.37,3.37  C46.63,62.623,48.142,64.134,50,64.134z M50,59.641c0.619,0,1.123,0.504,1.123,1.123c0,0.619-0.504,1.124-1.123,1.124  s-1.123-0.504-1.123-1.124C48.877,60.145,49.381,59.641,50,59.641z"/></svg>