<?xml version="1.0" ?><svg id="Layer_1" style="enable-background:new 0 0 100 100;" version="1.1" viewBox="0 0 100 100" xml:space="preserve" xmlns="http://www.w3.org/2000/svg" xmlns:xlink="http://www.w3.org/1999/xlink"><path d="M77.884,80.377v-1.068h-0.107c-0.444-4.431-1.02-10.464-1.02-11.273V65.98c0.264-0.753,1.127-3.435,1.127-6.405V29.074  c0-2.257-1.88-4.094-4.192-4.094c-0.694,0-1.347,0.166-1.923,0.459v-0.022v-1.483c0-2.258-1.881-4.094-4.192-4.094  c-0.693,0-1.346,0.166-1.922,0.458v-0.037v-0.204h-0.01c-0.11-2.154-1.934-3.875-4.167-3.875c-2.018,0-3.706,1.399-4.104,3.255  c-0.598-0.323-1.286-0.507-2.019-0.507c-0.82,0-1.583,0.235-2.23,0.634c-0.735-1.184-2.064-1.979-3.583-1.979  c-0.693,0-1.346,0.166-1.922,0.458v-0.036v-0.204h-0.011c-0.109-2.154-1.933-3.876-4.167-3.876c-2.018,0-3.707,1.4-4.104,3.256  c-0.599-0.323-1.287-0.508-2.019-0.508c-2.307,0-4.184,1.833-4.184,4.072l-0.34,26.998c0,0.102-0.016,0.16-0.014,0.178  c-0.054-0.008-0.197-0.068-0.382-0.332l-1.707-2.148l-1.065-4.738c-0.056-1.939-1.097-3.669-2.739-4.536  c-1.296-0.685-2.589-0.719-3.643-0.104c-0.538,0.315-2.177,1.274-0.535,12.189l0.069,0.253c0.596,1.476,3.632,8.907,4.933,10.31  l5.223,5.314l0.728,2.2c0.042,0.924-0.338,5.922-0.77,10.724h-0.097v1.071l-0.109,1.183h0.109v4.509h18.036v2.255h19.164h2.255  h5.636v-4.509h0.12L77.884,80.377z M75.629,83.818h-3.382v-2.254h3.382V83.818z M35.048,81.564v-2.255h15.782v1.071l-0.109,1.183  H35.048z M35.887,65.941l-0.979-3.017l-5.567-5.664c-0.657-0.709-2.753-5.349-4.423-9.473c-0.595-4.018-0.895-8.794-0.423-9.832  c0.352-0.145,0.801-0.076,1.339,0.208c0.941,0.497,1.531,1.527,1.539,2.686l1.23,5.593l1.983,2.489  c0.595,0.867,1.536,1.328,2.444,1.233l1.135,5.672l2.21-0.442l-1.403-7.013c0.046-0.199,0.076-0.405,0.076-0.621l0.34-26.998  c0-1.01,0.865-1.831,1.93-1.831c1.064,0,1.931,0.822,1.931,1.832v1.804v9.456h2.254v-9.456V20.53v-2.51  c0-1.014,0.87-1.839,1.938-1.839c1.06,0,1.923,0.818,1.923,1.824v9.106v5.82h2.255v-5.82v-5.448c0-1.007,0.862-1.825,1.922-1.825  c1.011,0,1.835,0.743,1.921,1.682c-0.186,0.46-0.292,0.959-0.292,1.481L50.829,50c0,0.102-0.016,0.16-0.014,0.177  c-0.054-0.008-0.197-0.067-0.382-0.332l-1.708-2.148l-1.064-4.737c-0.057-1.939-1.098-3.67-2.739-4.537  c-1.296-0.685-2.589-0.719-3.643-0.104c-0.538,0.315-2.178,1.274-0.535,12.188l0.069,0.254c0.596,1.476,3.632,8.906,4.933,10.309  l5.222,5.314l0.728,2.2c0.036,0.78-0.229,4.457-0.572,8.47h-15.97C35.46,73.65,36.03,66.949,35.887,65.941z M55.354,21.185  c1.065,0,1.931,0.822,1.931,1.832v0.03v1.263v0.512v1.011v14.082h0.309h1.127h0.818V25.285v-0.464v-2.037v-2.509  c0-1.014,0.87-1.839,1.938-1.839c1.06,0,1.923,0.818,1.923,1.824v9.106v11.457h2.254V29.367v-5.448c0-1.006,0.862-1.825,1.922-1.825  c1.067,0,1.938,0.825,1.938,1.839v1.483v6.145v10.527h2.255V31.562v-2.503c0-1.006,0.863-1.825,1.923-1.825  c1.068,0,1.938,0.826,1.938,1.84v30.501c0,3.004-1.042,5.777-1.053,5.805l-0.074,0.195v2.462c0,1.054,0.706,8.24,1.008,11.273  h-3.263v-4.411V62.302v-4.411h-2.255v4.599l-8.561,0.713c-1.009,0.084-1.936,0.451-2.711,1.015c-0.426,0.31-0.806,0.676-1.127,1.092  c-0.495,0.643-0.848,1.397-1.015,2.212c-0.072,0.349-0.112,0.709-0.112,1.077c0,0.696,0.136,1.366,0.382,1.983  c0.294,0.735,0.747,1.393,1.316,1.933c0.362,0.345,0.77,0.64,1.216,0.876c0.623,0.329,1.315,0.543,2.052,0.605l8.561,0.713v4.599  H59.968h-0.12h-1.127h-1.127h-3.382H53.19c0.031-0.345,0.065-0.724,0.101-1.127c0.031-0.359,0.064-0.736,0.097-1.127  c0.3-3.507,0.651-8.044,0.535-8.859l-0.98-3.017l-0.987-1.005l-4.58-4.659c-0.657-0.71-2.753-5.349-4.422-9.473  c-0.596-4.018-0.895-8.794-0.424-9.832c0.352-0.145,0.801-0.075,1.339,0.208c0.942,0.498,1.531,1.527,1.539,2.686l1.23,5.593  l1.984,2.489c0.595,0.867,1.537,1.327,2.443,1.233l0.892,4.456L52.2,58.09l2.011-0.402l0.199-0.04l-0.199-0.996l-0.204-1.015  l-1-5.001c0.046-0.199,0.076-0.405,0.076-0.622l0.261-20.707l0.056-4.486l0.023-1.805c0-0.363,0.115-0.7,0.308-0.986  C54.076,21.524,54.672,21.185,55.354,21.185z M58.857,67.736c0.357-1.229,1.437-2.175,2.762-2.286l8.374-0.698v7.695l-8.374-0.698  c-1.132-0.094-2.083-0.801-2.562-1.77c-0.208-0.421-0.336-0.885-0.336-1.379C58.72,68.3,58.776,68.013,58.857,67.736z   M54.211,83.818h-1.128v-1.127v-1.128h1.128h3.382h1.127h1.127h10.145v2.254H59.848H54.211z M56.416,45.49l-1.126-0.05l0.1-2.252  l1.126,0.05c0.36,0.016,0.719,0.04,1.078,0.061c0.376,0.021,0.752,0.041,1.127,0.068c0.376,0.026,0.751,0.059,1.127,0.091  c4.316,0.363,8.566,1.052,12.671,2.066l1.094,0.271l-0.541,2.189l-1.094-0.271c-3.93-0.971-7.997-1.636-12.129-1.993  c-0.375-0.033-0.751-0.064-1.127-0.091c-0.375-0.027-0.751-0.049-1.127-0.071C57.201,45.533,56.809,45.507,56.416,45.49z   M67.739,69.164h-5.636v-2.255h5.636V69.164z"/></svg>