<?xml version="1.0" ?><svg id="Layer_1" style="enable-background:new 0 0 65 65;" version="1.1" viewBox="0 0 65 65" xml:space="preserve" xmlns="http://www.w3.org/2000/svg" xmlns:xlink="http://www.w3.org/1999/xlink"><g><g><path d="M37.1,10.3c-3.3,0-6,2.7-6,6s2.7,6,6,6s6-2.7,6-6S40.4,10.3,37.1,10.3z M37.1,20.3c-2.2,0-4-1.8-4-4s1.8-4,4-4s4,1.8,4,4    S39.3,20.3,37.1,20.3z"/></g><g><path d="M53.6,0.8L22.4,7.8c-2.1-0.2-3.8,1.4-3.8,3.4l-0.4,11.6c-0.1,1.5,0.9,3,2.4,3.5l5.3,1.8C23.7,34,21.8,39,21.6,40.3    l-2,19.3c-0.2,2.2,1.4,4.2,3.6,4.4c2.2,0.2,4.2-1.4,4.4-3.6l1.1-10.3l4.7,11.7c0.9,2.1,3.2,3,5.2,2.2c2.1-0.8,3-3.2,2.2-5.2    l-6.5-16c0.2-0.5-0.2,0.5,4-10.7c1.3-3.6-0.8-7.4-4-8.5l-9.1-3.1l0.3-9c0-0.8-0.2-1.5-0.7-2.1l24.2-5.5c-0.6,2.3-1,5.6,0.3,6.7    c1.6,1.3,5.7,0.2,6.7-1.4c1.1-1.8-0.7-6-1.5-7.8C54.4,0.6,53.7,0.8,53.6,0.8z M33.8,25.4c2.2,0.7,3.7,3.4,2.8,5.9    c0,0.1-4.3,11.2-4.1,11.7L39,59.4c0.4,1-0.1,2.2-1.1,2.6c-1,0.4-2.2-0.1-2.6-1.1l-6.2-15.4c-0.4-1-1.8-0.8-1.9,0.3l-1.5,14.3    c-0.1,1-1,1.8-2,1.8c-0.1,0-0.1,0-0.2,0c-1.1-0.1-1.9-1.1-1.8-2.2l2-19.3c0.1-0.9,4.4-12.3,4.5-12.6c0.2-0.5,0-1.2-0.6-1.4    l-6.3-2.1c-0.6-0.2-1.1-0.8-1-1.5l0.4-11.6c0-0.8,0.7-1.5,1.6-1.5c0,0,0,0,0,0c0.8,0,1.5,0.7,1.5,1.6l-0.3,9.8    c0,0.4,0.3,0.8,0.7,1L33.8,25.4z M54.5,8.1c-0.4,0.7-3.1,1.3-3.7,1c-0.4-0.5-0.1-3.1,0.6-5.7l1.9-0.4C54.2,5.2,54.8,7.5,54.5,8.1z    "/></g><g><path d="M10.5,15.1c0-6.4,5.2-11.6,11.6-11.6c0.6,0,1-0.4,1-1s-0.4-1-1-1c-7.5,0-13.6,6.1-13.6,13.6c0,0.6,0.4,1,1,1    S10.5,15.7,10.5,15.1z"/></g><g><path d="M15.8,31.8c-2.4-0.5-4.3-2.6-4.6-5.1c-0.1-0.5-0.6-0.9-1.1-0.9c-0.5,0.1-0.9,0.6-0.9,1.1c0.4,3.3,2.9,6.2,6.2,6.9    c0.5,0.1,1.1-0.2,1.2-0.8C16.7,32.5,16.3,31.9,15.8,31.8z"/></g></g></svg>