<?xml version="1.0" ?><svg data-name="Layer 1" id="Layer_1" viewBox="0 0 100 100" xmlns="http://www.w3.org/2000/svg"><title/><path d="M90.88,53.6a1,1,0,0,0-.88-.527,9.093,9.093,0,0,0-3.4.6c1.942-8.758-.637-12.955-.759-13.145a1,1,0,0,0-1.288-.353c-3.133,1.566-4.084,7.269-4.372,10.9a5.753,5.753,0,0,0-5.346-1.99,1,1,0,0,0-.73,1.434c.037.074,3.495,7.069,3.859,13.491A.989.989,0,0,0,77,65.083l1,12A1,1,0,0,0,79,78h8a1,1,0,0,0,1-.917l1-12A1,1,0,0,0,88,64h-.911c.5-4.407,3.71-9.327,3.745-9.38A1,1,0,0,0,90.88,53.6ZM84.614,42.64c.627,1.78,1.463,5.922-.515,12.769-.067.074-.14.14-.2.218a7.376,7.376,0,0,0-.672.971,20.57,20.57,0,0,0-1.166-2.779C82.071,50.273,82.777,44.765,84.614,42.64Zm-4.48,11.82,0,.007a21.539,21.539,0,0,1,1.88,5.29c.006.033.027.057.036.089A16.226,16.226,0,0,0,81.867,64h-1.9a40.149,40.149,0,0,0-3.4-12.9C78.118,51.469,79.282,52.882,80.134,54.46ZM86.08,76H79.92l-.829-9.949A1.006,1.006,0,0,0,79.344,66h3.3a.978.978,0,0,0,.537.053A1.01,1.01,0,0,0,83.311,66h2.366a.969.969,0,0,0,.337.069h0A.985.985,0,0,0,86.362,66h.551Zm-.994-12H83.874c-.145-1.6-.2-4.986,1.556-7.092a4.892,4.892,0,0,1,2.691-1.634A24.5,24.5,0,0,0,85.086,64ZM64,53H63V47a4,4,0,0,0-4-4H18a4,4,0,0,0-4,4v6H13a4,4,0,0,0-4,4V67a4,4,0,0,0,4,4h.847l-.837,5.858A1,1,0,0,0,14,78h3a1,1,0,0,0,.99-.858L18.867,71H58.133l.877,6.142A1,1,0,0,0,60,78h3a1,1,0,0,0,.99-1.142L63.153,71H64a4,4,0,0,0,4-4V57A4,4,0,0,0,64,53Zm0,2a2,2,0,0,1,2,2v3H61V57a2,2,0,0,1,2-2ZM16,47a2,2,0,0,1,2-2H59a2,2,0,0,1,2,2v6.556A3.987,3.987,0,0,0,59,57v3H48V51a1,1,0,0,0-2,0v9H32V51a1,1,0,0,0-2,0v9H18V57a3.987,3.987,0,0,0-2-3.444ZM11,57a2,2,0,0,1,2-2h1a2,2,0,0,1,2,2v3H11Zm5.133,19h-.98l.714-5h.98Zm45.714,0h-.98l-.714-5h.98ZM66,67a2,2,0,0,1-2,2H13a2,2,0,0,1-2-2V62H66ZM46.069,31H61.931a1,1,0,0,0,.992-1.124A9,9,0,0,0,55,22.062V11a1,1,0,0,0-2,0V22.062a9,9,0,0,0-7.923,7.814A1,1,0,0,0,46.069,31ZM54,24a7.007,7.007,0,0,1,6.7,5H47.3A7.007,7.007,0,0,1,54,24ZM16.069,31H31.931a1,1,0,0,0,.992-1.124A9,9,0,0,0,25,22.062V11a1,1,0,0,0-2,0V22.062a9,9,0,0,0-7.923,7.814A1,1,0,0,0,16.069,31ZM24,24a7.007,7.007,0,0,1,6.7,5H17.3A7.007,7.007,0,0,1,24,24Z"/></svg>