<?xml version="1.0" encoding="UTF-8"?>
<svg xmlns="http://www.w3.org/2000/svg" version="1.1" viewBox="0 0 100 100">
  <!-- Generator: Adobe Illustrator 28.6.0, SVG Export Plug-In . SVG Version: 1.2.0 Build 709)  -->
  <g>
    <g id="Layer_1">
      <path d="M98.7,61.9c-.2-.4-.6-.6-1-.6-1.4,0-2.8.2-4.1.7,2.3-10.4-.8-15.4-.9-15.7-.3-.5-1-.7-1.5-.4-3.7,1.9-4.9,8.7-5.2,13-1.6-1.9-4-2.8-6.4-2.4-.6.1-1.1.7-1,1.4,0,.1,0,.2.1.3,0,0,4.2,8.4,4.6,16.1-.7,0-1.2.6-1.2,1.2,0,0,0,0,0,0l1.2,14.3c0,.6.6,1.1,1.2,1.1h9.5c.6,0,1.1-.5,1.2-1.1l1.2-14.3c0-.7-.4-1.2-1.1-1.3,0,0,0,0-.1,0h-1.1c.6-5.3,4.4-11.1,4.5-11.2.2-.4.3-.8,0-1.2ZM91.2,48.9c.7,2.1,1.7,7.1-.6,15.2,0,0-.2.2-.2.3-.3.4-.6.8-.8,1.2-.4-1.1-.8-2.2-1.4-3.3,0-4.2.9-10.8,3-13.3ZM85.9,63h0c1,2,1.8,4.1,2.2,6.3,0,0,0,0,0,.1-.3,1.6-.4,3.3-.2,4.9h-2.3c-.5-5.3-1.9-10.5-4.1-15.4,1.8.4,3.2,2.1,4.2,4ZM93,88.6h-7.3l-1-11.9c.1,0,.2,0,.3,0h3.9c.2,0,.4.1.6,0,0,0,.1,0,.2,0h2.8c.1,0,.3,0,.4,0h0c.1,0,.3,0,.4,0h.7l-1,11.9ZM91.8,74.3h-1.4c-.2-1.9-.2-5.9,1.9-8.4.8-1,2-1.7,3.2-1.9-1.9,3.2-3.1,6.7-3.6,10.4ZM66.7,61.2h-1.2v-7.1c0-2.6-2.1-4.8-4.8-4.8H11.9c-2.6,0-4.8,2.1-4.8,4.8v7.1h-1.2c-2.6,0-4.8,2.1-4.8,4.8v11.9c0,2.6,2.1,4.8,4.8,4.8h1l-1,7c0,.7.4,1.3,1,1.3,0,0,.1,0,.2,0h3.6c.6,0,1.1-.4,1.2-1l1-7.3h46.8l1,7.3c0,.6.6,1,1.2,1h3.6c.7,0,1.2-.5,1.2-1.2,0,0,0-.1,0-.2l-1-7h1c2.6,0,4.8-2.1,4.8-4.8v-11.9c0-2.6-2.1-4.8-4.8-4.8ZM66.7,63.6c1.3,0,2.4,1.1,2.4,2.4v3.6h-6v-3.6c0-1.3,1.1-2.4,2.4-2.4h1.2ZM9.5,54.1c0-1.3,1.1-2.4,2.4-2.4h48.8c1.3,0,2.4,1.1,2.4,2.4v7.8c-1.5.8-2.4,2.4-2.4,4.1v3.6h-13.1v-10.7c0-.7-.5-1.2-1.2-1.2s-1.2.5-1.2,1.2v10.7h-16.7v-10.7c0-.7-.5-1.2-1.2-1.2s-1.2.5-1.2,1.2v10.7h-14.3v-3.6c0-1.7-.9-3.3-2.4-4.1v-7.8ZM3.5,66c0-1.3,1.1-2.4,2.4-2.4h1.2c1.3,0,2.4,1.1,2.4,2.4v3.6H3.5v-3.6ZM9.7,88.6h-1.2l.9-6h1.2l-.9,6ZM64.1,88.6h-1.2l-.9-6h1.2l.9,6ZM69.1,77.9c0,1.3-1.1,2.4-2.4,2.4H5.9c-1.3,0-2.4-1.1-2.4-2.4v-6h65.5v6ZM45.3,35h18.9c.7,0,1.2-.5,1.2-1.2,0,0,0,0,0-.1-.6-4.9-4.5-8.8-9.4-9.3v-13.2c0-.7-.5-1.2-1.2-1.2s-1.2.5-1.2,1.2v13.2c-4.9.6-8.8,4.4-9.4,9.3,0,.7.4,1.2,1,1.3,0,0,0,0,.1,0ZM54.8,26.7c3.7,0,6.9,2.4,8,6h-16c1.1-3.5,4.3-5.9,8-6ZM9.6,35h18.9c.7,0,1.2-.5,1.2-1.2,0,0,0,0,0-.1-.6-4.9-4.5-8.8-9.4-9.3v-13.2c0-.7-.5-1.2-1.2-1.2s-1.2.5-1.2,1.2v13.2c-4.9.6-8.8,4.4-9.4,9.3,0,.7.4,1.2,1,1.3,0,0,0,0,.1,0ZM19,26.7c3.7,0,6.9,2.4,8,6h-16c1.1-3.5,4.3-5.9,8-6Z"/>
    </g>
  </g>
</svg>