<?xml version="1.0" ?><svg id="Layer_1" style="enable-background:new 0 0 256 256;" version="1.1" viewBox="0 0 256 256" xml:space="preserve" xmlns="http://www.w3.org/2000/svg" xmlns:xlink="http://www.w3.org/1999/xlink"><g><path d="M76.9,127.7c2.6,0.5,5.1-1.3,5.6-3.9c1.8-10.1,2.9-15.4,3.1-16.2c1.7-5,6-7.5,13.3-10.3l6.1-2.4c0.8,1.9,1.7,3.7,2.8,5.4   c1.9,2.9,4.1,5.6,7,8.5c0.3,0.3,0.6,0.5,1,0.9c0.3,0.3,0.6,0.6,0.9,0.8c0.8,0.7,1.6,1.4,2.5,2c2,1.5,3.7,2.7,5.6,3.7   c1.7,1,3.8,1,5.6,0.2c0.1,0,0.3-0.2,0.4-0.2c2.4-1.4,4.2-2.7,5.5-3.7c0.9-0.7,1.8-1.4,2.5-2c0.4-0.3,0.8-0.7,1.1-1   c0.3-0.3,0.6-0.5,1.1-1.1c2.7-2.6,4.9-5.3,6.8-8.2c1.1-1.8,2-3.6,2.8-5.4l6.1,2.4c7.3,2.8,11.6,5.3,13.2,10.3   c0.3,0.9,1.3,6.2,3.1,16.3c0.4,2.3,2.4,3.9,4.7,3.9c0.3,0,0.6,0,0.9-0.1c2.6-0.5,4.3-3,3.9-5.6c-2.8-15.7-3.3-17.1-3.5-17.6   c-3.4-10.2-13.1-14-18.9-16.2l-10.9-4.2c-1.3-0.5-2.8-0.4-4,0.2c-1.2,0.7-2.1,1.8-2.4,3.2c-0.1,0.5-0.2,1-0.4,1.5   c-0.6,2.1-1.6,4.2-2.8,6.2c-1.4,2.3-3.2,4.4-5.5,6.7l-0.6,0.6c-0.3,0.3-0.6,0.5-1,0.8c-0.6,0.5-1.3,1.1-2.1,1.6   c-0.8,0.6-1.7,1.3-2.8,2c-1.2-0.7-2.1-1.4-2.9-2c-0.7-0.5-1.4-1.1-2.1-1.7l-1.8-1.6c-2.1-2.1-3.9-4.2-5.3-6.4c-1.3-2-2.2-4-2.9-6.2   c-0.2-0.5-0.3-1-0.4-1.5c-0.3-1.4-1.2-2.5-2.4-3.2c-1.2-0.7-2.7-0.7-4-0.2l-10.9,4.2c-5.8,2.2-15.5,6-18.9,16.2   c-0.2,0.5-0.6,1.8-3.5,17.6C72.6,124.7,74.3,127.2,76.9,127.7z"/><path d="M95.1,69.7c6.8,2,13.8,3.4,20.7,4.2c0.2,0,0.4,0,0.5,0c2.4,0,4.5-1.8,4.8-4.3c0.3-2.6-1.6-5-4.2-5.3   c-6.3-0.7-12.7-2-19-3.8L108,30.3c2-5.9,6.6-10.8,12.4-12.9c4-1.5,8.7-1.8,13-0.6c6.7,1.7,12.5,7.1,14.7,13.6l10.2,30.2   c-6.3,1.9-12.7,3.2-19,3.9c-2.6,0.3-4.5,2.7-4.2,5.3c0.3,2.6,2.7,4.5,5.3,4.2c6.9-0.8,13.8-2.2,20.6-4.2c2.5-0.7,4.6-2.5,5.8-4.8   c1.2-2.3,1.4-5,0.6-7.4c0,0-10.1-30.1-10.2-30.3c-3.2-9.6-11.4-17.2-21.3-19.8c-6.2-1.6-12.9-1.3-18.8,0.9   c-8.4,3.2-15.2,10.2-18.1,18.9L88.7,57.5c-0.8,2.5-0.6,5.1,0.6,7.4C90.5,67.3,92.6,69,95.1,69.7z"/><path d="M229.5,139.3H26.5c-3,0-5.5,2.5-5.5,5.5v29.5c0,3,2.5,5.5,5.5,5.5H35l6.7,64.8c0.3,2.8,2.6,4.9,5.4,4.9h161.7   c2.8,0,5.2-2.1,5.4-4.9l6.8-64.8h8.3c3,0,5.5-2.5,5.5-5.5v-29.5C234.9,141.8,232.5,139.3,229.5,139.3z M225.3,170.2h-7.9   c-2.8,0-5.1,2.1-5.4,4.9l-6.8,64.8H50.9l-6.7-64.8c-0.3-2.8-2.6-4.9-5.4-4.9h-8v-21.3h194.7V170.2z"/><path d="M57,178.7c1.2,0,2.4-0.5,3.4-1.4l12.3-12.1c1.9-1.9,1.9-4.9,0.1-6.8c-1.8-1.9-4.9-1.9-6.8-0.1l-12.3,12.1   c-1.9,1.9-1.9,4.9-0.1,6.8C54.5,178.3,55.7,178.7,57,178.7z"/><path d="M59,229.2c0.9,1,2.2,1.4,3.4,1.4c1.2,0,2.4-0.5,3.4-1.4l65.3-64c1.9-1.8,1.9-4.9,0.1-6.8c-1.8-1.9-4.9-1.9-6.8-0.1   l-65.3,64C57.1,224.3,57.1,227.3,59,229.2z"/><path d="M116.2,230.4c0.9,1,2.2,1.4,3.4,1.4c1.2,0,2.4-0.5,3.4-1.4l66.6-65.2c1.9-1.9,1.9-4.9,0.1-6.8c-1.9-1.9-4.9-1.9-6.8-0.1   l-66.6,65.2C114.4,225.5,114.4,228.5,116.2,230.4z"/><path d="M174.7,230.4c0.9,1,2.2,1.4,3.4,1.4c1.2,0,2.4-0.5,3.4-1.4l17.2-16.8c1.9-1.8,1.9-4.9,0.1-6.8c-1.8-1.9-4.9-1.9-6.8-0.1   l-17.2,16.8C172.8,225.5,172.8,228.5,174.7,230.4z"/></g></svg>