<?xml version="1.0" ?><svg xmlns="http://www.w3.org/2000/svg" id="OBJECT" viewBox="0 0 512 512"><path d="M454.5,0H57.5C25.79,0,0,25.79,0,57.5v110c0,31.71,25.79,57.5,57.5,57.5h63.86l23.78,47.56c3.84,7.67,11.55,12.44,20.12,12.44h58.23v67.42l-35.86,14.34c-8.59,3.44-14.14,11.64-14.14,20.89v59.34H96c-12.41,0-22.5,10.09-22.5,22.5v20c0,12.41,10.09,22.5,22.5,22.5H416c12.41,0,22.5-10.09,22.5-22.5v-20c0-12.41-10.09-22.5-22.5-22.5h-77.5v-59.34c0-9.25-5.55-17.45-14.14-20.89l-35.86-14.34v-67.42h58.23c8.58,0,16.29-4.77,20.12-12.44l23.78-47.56h63.86c31.71,0,57.5-25.79,57.5-57.5V57.5c0-31.71-25.79-57.5-57.5-57.5ZM188.5,387.66c0-3.08,1.85-5.82,4.71-6.96l30.29-12.11v78.42h-35v-59.34Zm235,81.84v20c0,4.14-3.36,7.5-7.5,7.5H96c-4.14,0-7.5-3.36-7.5-7.5v-20c0-4.14,3.36-7.5,7.5-7.5H416c4.14,0,7.5,3.36,7.5,7.5Zm-104.71-88.81c2.86,1.15,4.71,3.88,4.71,6.96v59.34h-35v-78.42l30.29,12.11Zm-45.29,66.31h-35v-162h35v162Zm79.94-181.15c-1.28,2.56-3.85,4.15-6.71,4.15H165.27c-2.86,0-5.43-1.59-6.71-4.15l-20.43-40.85h235.73l-20.43,40.85Zm143.56-98.35c0,23.43-19.07,42.5-42.5,42.5H57.5c-23.43,0-42.5-19.07-42.5-42.5V57.5c0-23.43,19.07-42.5,42.5-42.5H454.5c23.43,0,42.5,19.07,42.5,42.5v110Z"/><path d="M454.5,55h-5c-12.41,0-22.5,10.09-22.5,22.5v70c0,12.41,10.09,22.5,22.5,22.5h5c12.41,0,22.5-10.09,22.5-22.5V77.5c0-12.41-10.09-22.5-22.5-22.5Zm7.5,92.5c0,4.14-3.36,7.5-7.5,7.5h-5c-4.14,0-7.5-3.36-7.5-7.5V77.5c0-4.14,3.36-7.5,7.5-7.5h5c4.14,0,7.5,3.36,7.5,7.5v70Z"/><path d="M394.5,55h-5c-12.41,0-22.5,10.09-22.5,22.5v70c0,12.41,10.09,22.5,22.5,22.5h5c12.41,0,22.5-10.09,22.5-22.5V77.5c0-12.41-10.09-22.5-22.5-22.5Zm7.5,92.5c0,4.14-3.36,7.5-7.5,7.5h-5c-4.14,0-7.5-3.36-7.5-7.5V77.5c0-4.14,3.36-7.5,7.5-7.5h5c4.14,0,7.5,3.36,7.5,7.5v70Z"/><path d="M256,32.5c-44.11,0-80,35.89-80,80s35.89,80,80,80,80-35.89,80-80-35.89-80-80-80Zm0,145c-35.84,0-65-29.16-65-65s29.16-65,65-65,65,29.16,65,65-29.16,65-65,65Z"/><path d="M296.44,93.57c-10.3-3.17-18.35-11.21-21.51-21.51-.73-2.38-2.59-4.24-4.97-4.97-4.52-1.39-9.21-2.09-13.96-2.09-26.19,0-47.5,21.31-47.5,47.5s21.31,47.5,47.5,47.5,47.5-21.31,47.5-47.5c0-4.75-.7-9.44-2.09-13.96-.73-2.38-2.59-4.24-4.97-4.97Zm-40.44,51.43c-17.92,0-32.5-14.58-32.5-32.5s14.58-32.5,32.5-32.5c2.04,0,4.07,.19,6.06,.57,4.82,11.74,14.13,21.06,25.88,25.88,.38,1.99,.57,4.02,.57,6.06,0,17.92-14.58,32.5-32.5,32.5Z"/><path d="M62.5,85c-15.16,0-27.5,12.34-27.5,27.5s12.34,27.5,27.5,27.5,27.5-12.34,27.5-27.5-12.34-27.5-27.5-27.5Zm0,40c-6.89,0-12.5-5.61-12.5-12.5s5.61-12.5,12.5-12.5,12.5,5.61,12.5,12.5-5.61,12.5-12.5,12.5Z"/><path d="M132.5,85c-15.16,0-27.5,12.34-27.5,27.5s12.34,27.5,27.5,27.5,27.5-12.34,27.5-27.5-12.34-27.5-27.5-27.5Zm0,40c-6.89,0-12.5-5.61-12.5-12.5s5.61-12.5,12.5-12.5,12.5,5.61,12.5,12.5-5.61,12.5-12.5,12.5Z"/><path d="M201,255h10c4.14,0,7.5-3.36,7.5-7.5s-3.36-7.5-7.5-7.5h-10c-4.14,0-7.5,3.36-7.5,7.5s3.36,7.5,7.5,7.5Z"/><path d="M251,255h10c4.14,0,7.5-3.36,7.5-7.5s-3.36-7.5-7.5-7.5h-10c-4.14,0-7.5,3.36-7.5,7.5s3.36,7.5,7.5,7.5Z"/><path d="M301,255h10c4.14,0,7.5-3.36,7.5-7.5s-3.36-7.5-7.5-7.5h-10c-4.14,0-7.5,3.36-7.5,7.5s3.36,7.5,7.5,7.5Z"/><path d="M62.5,55h10c4.14,0,7.5-3.36,7.5-7.5s-3.36-7.5-7.5-7.5h-10c-4.14,0-7.5,3.36-7.5,7.5s3.36,7.5,7.5,7.5Z"/><path d="M102.5,55h20c4.14,0,7.5-3.36,7.5-7.5s-3.36-7.5-7.5-7.5h-20c-4.14,0-7.5,3.36-7.5,7.5s3.36,7.5,7.5,7.5Z"/><path d="M72.5,170h-10c-4.14,0-7.5,3.36-7.5,7.5s3.36,7.5,7.5,7.5h10c4.14,0,7.5-3.36,7.5-7.5s-3.36-7.5-7.5-7.5Z"/><path d="M122.5,170h-20c-4.14,0-7.5,3.36-7.5,7.5s3.36,7.5,7.5,7.5h20c4.14,0,7.5-3.36,7.5-7.5s-3.36-7.5-7.5-7.5Z"/></svg>