<?xml version="1.0" ?><svg enable-background="new 0 0 500 500" id="Layer_2" version="1.1" viewBox="0 0 500 500" xml:space="preserve" xmlns="http://www.w3.org/2000/svg" xmlns:xlink="http://www.w3.org/1999/xlink"><g><path d="M448.111,65.065L385,41.468v66.02l63.438-25.49C456.238,78.649,456.005,68.214,448.111,65.065z" fill="#474747"/><path d="M384.078,280.053c-0.235,0-1.078,0.011-1.078,0.014v14.653c0,3.198-2.302,5.79-5.5,5.79   s-5.5-2.592-5.5-5.79V32.258c0-4.263-3.737-7.719-8-7.719s-8,3.456-8,7.719v170.053c-32.156-2.025-66.443-3.09-101.374-3.104   l10.726,15.04c31.259,0.205,61.635,1.262,90.648,3.097v69.912c-4,3.63-5.036,7.715-5.036,10.239   c0,12.049,16.82,17.443,33.307,17.443c7.705,0,15.157-1.193,20.814-3.358c10.789-4.13,12.258-10.597,12.258-14.085   C417.343,285.447,400.565,280.053,384.078,280.053z" fill="#474747"/><path d="M340.037,367.244c-10.942,0-19.844,8.902-19.844,19.844s8.902,19.844,19.844,19.844   c10.942,0,19.844-8.902,19.844-19.844S350.979,367.244,340.037,367.244z M340.037,396.59c-5.247,0-9.501-4.254-9.501-9.501   s4.254-9.501,9.501-9.501s9.501,4.254,9.501,9.501S345.284,396.59,340.037,396.59z" fill="#474747"/><path d="M203.043,96.231c24.859,10.211,42.104-20.536,48.539-36.2c6.434-15.664-1.247-33.661-17.158-40.196   c-15.911-6.536-34.025,0.865-40.459,16.529C187.531,52.028,178.184,86.019,203.043,96.231z" fill="#474747"/><path d="M184.171,216.715l36.036,49.81c3.463,4.787,8.871,7.329,14.359,7.329c3.597,0,7.228-1.092,10.363-3.362   c7.924-5.732,9.7-16.8,3.967-24.723l-41.946-57.979l-1.928-23.242c-0.046-0.552,0.036-1.107,0.238-1.622v0   c1.401-3.573,6.667-2.801,6.984,1.023l1.978,23.841l41.946,57.979c4.758,6.575,4.329,15.308-0.479,21.368   c2.744-0.963,5.337-2.598,7.49-5.074c5.485-6.305,5.616-15.669,0.696-22.424l-37.514-53.804l-3.762-52.338   c-2.302-19.405-19.761-34.069-40.709-37.347c-16.005-1.752-31.833,7.288-37.992,22.996L109.99,205.63   c-35.065,3.307-67,7.821-93.876,13.387c-4.057,0.84-6.664,4.809-5.823,8.864c0.733,3.544,3.854,5.981,7.336,5.981   c0.504,0,1.016-0.052,1.528-0.158c24.439-5.061,53.172-9.238,84.694-12.411l-5.631,14.362   c-4.951,14.441-10.042,41.492,3.196,58.025l36.846,59.312l-19.663,110.123c-2.154,9.539,3.833,19.017,13.372,21.17   c1.313,0.297,2.624,0.439,3.916,0.438c8.092,0,15.398-5.585,17.254-13.811l26.273-116.395c0.915-4.052,0.376-8.295-1.521-11.99   l-29.482-57.387c-0.74-1.441-0.179-3.249,1.247-4.017l0.084-0.045c1.464-0.791,3.286-0.283,4.062,1.189l33.061,59.385   c2.727,4.899,3.503,10.646,2.173,16.093l-25.629,104.956c-2.382,9.484,3.377,19.103,12.861,21.484   c1.447,0.364,2.897,0.538,4.325,0.538c7.926-0.001,15.141-5.361,17.159-13.399l29.226-116.395   c1.062-4.229,0.525-8.702-1.506-12.561l-49.629-94.246c-1.451-2.755-1.632-6.006-0.495-8.906L184.171,216.715z" fill="#474747"/><path d="M326.836,461.165c-1.206-5.529-6.665-9.034-12.194-7.828l-15.376,3.353l-46.079-177.615   c-0.892,1.041-1.903,2.004-3.062,2.843c-3.033,2.196-6.529,3.279-10.01,3.349l47.973,187.394c1.206,5.529,6.665,9.034,12.194,7.828   l19.361-4.222c5.529-1.206,9.034-6.666,7.828-12.195L326.836,461.165z" fill="#474747"/><path d="M479.734,216.687c-28.412-5.292-61.168-9.467-96.734-12.408v15.053c34.562,2.891,66.38,6.959,93.988,12.101   c4.067,0.764,7.988-1.927,8.746-6C486.493,221.36,483.807,217.444,479.734,216.687z" fill="#474747"/></g></svg>