<?xml version="1.0" ?><!DOCTYPE svg  PUBLIC '-//W3C//DTD SVG 1.1//EN'  'http://www.w3.org/Graphics/SVG/1.1/DTD/svg11.dtd'><svg id="Layer_2" style="enable-background:new 0 0 64 64;" version="1.1" viewBox="0 0 64 64" xml:space="preserve" xmlns="http://www.w3.org/2000/svg" xmlns:xlink="http://www.w3.org/1999/xlink"><style type="text/css">
	.st0{fill:#191919;}
</style><g><path class="st0" d="M15.586,44.042l2.043,0.583c0.092,0.026,0.184,0.039,0.275,0.039c0.435,0,0.835-0.287,0.961-0.726   c0.152-0.531-0.156-1.084-0.687-1.236l-2.043-0.583c-0.53-0.152-1.084,0.156-1.236,0.687   C14.748,43.337,15.055,43.891,15.586,44.042z"/><path class="st0" d="M6.249,45.211c0.709-1.911,2.83-3.028,4.85-2.452l1.689,0.482c0.53,0.15,1.084-0.156,1.236-0.687   s-0.156-1.084-0.687-1.236l-1.688-0.482c-0.548-0.157-1.107-0.236-1.663-0.236c-2.487,0-4.742,1.573-5.611,3.914   c-0.192,0.518,0.072,1.093,0.589,1.286c0.115,0.042,0.232,0.063,0.348,0.063C5.717,45.864,6.1,45.614,6.249,45.211z"/><path class="st0" d="M62.502,2.135c-0.476-0.276-1.089-0.115-1.367,0.363L43.447,32.961l-2.553-1.459L57.863,2.505   c0.279-0.477,0.119-1.089-0.358-1.368c-0.479-0.28-1.09-0.118-1.368,0.358L39.157,30.51l-0.661-0.378   c-0.233-0.134-0.511-0.167-0.771-0.093c-0.259,0.074-0.477,0.25-0.605,0.487l-5.488,10.192c-0.651,1.21-2.105,1.837-3.439,1.47   L12.394,37.83c-0.791-0.218-1.601-0.329-2.409-0.329C5.03,37.501,1,41.541,1,46.506V52c0,6.065,4.935,11,11,11h12.116   c3.993,0,7.677-2.168,9.616-5.658l12.143-21.856c0.266-0.479,0.098-1.083-0.378-1.354l-0.313-0.179L62.865,3.502   C63.142,3.024,62.98,2.413,62.502,2.135z M31.983,56.371C30.397,59.226,27.382,61,24.116,61H12c-4.962,0-9-4.038-9-9v-5.494   c0-3.862,3.133-7.004,6.985-7.004c0.628,0,1.259,0.086,1.876,0.256l15.799,4.358c0.434,0.12,0.882,0.181,1.33,0.181   c1.842,0,3.529-1.008,4.402-2.63l5.002-9.29l0.621,0.355c0,0,0.001,0.001,0.001,0.001c0.001,0,0.001,0,0.002,0.001l4.628,2.645   L31.983,56.371z"/><path class="st0" d="M25,47H7c-0.552,0-1,0.448-1,1s0.448,1,1,1h18c0.552,0,1-0.448,1-1S25.552,47,25,47z"/><path class="st0" d="M23,51H9c-0.552,0-1,0.448-1,1s0.448,1,1,1h14c0.552,0,1-0.448,1-1S23.552,51,23,51z"/><path class="st0" d="M21,55H11c-0.552,0-1,0.448-1,1s0.448,1,1,1h10c0.552,0,1-0.448,1-1S21.552,55,21,55z"/></g></svg>