<?xml version="1.0" ?><svg data-name="Layer 1" id="Layer_1" viewBox="0 0 24 24" xmlns="http://www.w3.org/2000/svg"><defs><style>.cls-1{fill:none;stroke:#000;stroke-linecap:round;stroke-linejoin:round;}</style></defs><title/><path class="cls-1" d="M1.6,13.39a15.86,15.86,0,0,1,1-6.34l1.09.64a5.78,5.78,0,0,0,4.43.78"/><path class="cls-1" d="M17.26,11.71l.58.27a21.59,21.59,0,0,0,3.41,1.25A1.65,1.65,0,0,1,22,16c-.81.82-3.73,1.52-6.4,1.52h-9a11.43,11.43,0,0,1-4.82-1.31h0A.47.47,0,0,1,2,15.3H17.56"/><path class="cls-1" d="M7.76,5.09a6,6,0,0,0,2.3,2.33"/><line class="cls-1" x1="10.96" x2="12.53" y1="9.5" y2="7.53"/><line class="cls-1" x1="12.84" x2="14.41" y1="10.5" y2="8.54"/><line class="cls-1" x1="14.72" x2="16.29" y1="11.43" y2="9.47"/></svg>