<?xml version="1.0" ?><svg enable-background="new 0 0 512 512" id="Layer_2" version="1.1" viewBox="0 0 512 512" xml:space="preserve" xmlns="http://www.w3.org/2000/svg" xmlns:xlink="http://www.w3.org/1999/xlink"><g><circle cx="165.635" cy="110.787" fill="none" r="37.842" stroke="#474747" stroke-linecap="round" stroke-linejoin="round" stroke-miterlimit="10" stroke-width="15"/><path d="   M323.611,327.628h49.255c19.241,0,34.839-15.598,34.839-34.839v0c0-19.241-15.598-34.839-34.839-34.839H218.969   c-12.462,0-23.878-6.969-29.574-18.053l-56.97-110.86c-12.696-24.706-42.516-35.141-67.847-23.742l-12.484,5.618   c-21.077,9.485-30.219,34.458-20.247,55.309l0,0c4.487,9.381,15.266,13.84,25.001,10.515c0.668-0.228,1.338-0.455,2.023-0.627   l11.101-2.791c9.806-2.465,19.962,2.494,24.048,11.742l61.402,142.567v116.53h233.059v-88.899" fill="none" stroke="#474747" stroke-linecap="round" stroke-linejoin="round" stroke-miterlimit="10" stroke-width="15"/><path d="   M204.609,168.34l27.388,49.255l95.217,5.249c9.053,0.832,15.98,8.426,15.98,17.516v0c0,9.715-7.875,17.59-17.59,17.59h-11.603" fill="none" stroke="#474747" stroke-linecap="round" stroke-linejoin="round" stroke-miterlimit="10" stroke-width="15"/><path d="   M427.308,324.158l52.412,88.097c5.563,9.316,3.073,21.339-5.733,27.679l0,0c-9.961,7.172-23.928,4.258-30.19-6.298l-32.489-55.478" fill="none" stroke="#474747" stroke-linecap="round" stroke-linejoin="round" stroke-miterlimit="10" stroke-width="15"/><line fill="none" stroke="#474747" stroke-linecap="round" stroke-linejoin="round" stroke-miterlimit="10" stroke-width="15" x1="155.424" x2="227.178" y1="327.628" y2="327.628"/></g></svg>