<?xml version="1.0" ?><svg style="enable-background:new 0 0 64 64;" version="1.1" viewBox="0 0 64 64" xml:space="preserve" xmlns="http://www.w3.org/2000/svg" xmlns:xlink="http://www.w3.org/1999/xlink"><style type="text/css">
	.st0{display:none;}
	.st1{display:inline;fill:#FFFFFF;}
	.st2{display:inline;}
	.st3{fill:#C8C8C8;}
	.st4{fill:#5796D1;}
	.st5{fill:none;stroke:#000000;stroke-linecap:round;stroke-linejoin:round;stroke-miterlimit:10;}
	.st6{stroke:#000000;stroke-linecap:round;stroke-linejoin:round;stroke-miterlimit:10;}
	.st7{fill:#FFFFFF;stroke:#000000;stroke-linecap:round;stroke-linejoin:round;stroke-miterlimit:10;}
	.st8{fill:#FFFFFF;}
	
		.st9{display:inline;fill:#E1F9F7;stroke:#000000;stroke-width:2;stroke-linecap:round;stroke-linejoin:round;stroke-miterlimit:10;}
	.st10{fill:#F2FCFC;stroke:#000000;stroke-linecap:round;stroke-linejoin:round;stroke-miterlimit:10;}
	.st11{fill:#E1F9F7;stroke:#000000;stroke-linecap:round;stroke-linejoin:round;stroke-miterlimit:10;}
	.st12{fill:#574943;stroke:#000000;stroke-width:2;stroke-linecap:round;stroke-linejoin:round;stroke-miterlimit:10;}
	.st13{fill:#A4EDE6;stroke:#000000;stroke-linecap:round;stroke-linejoin:round;stroke-miterlimit:10;}
	.st14{fill:#FFDD64;stroke:#000000;stroke-linecap:round;stroke-linejoin:round;stroke-miterlimit:10;}
	.st15{fill:#FC3A52;stroke:#000000;stroke-linecap:round;stroke-linejoin:round;stroke-miterlimit:10;}
	.st16{fill:#F2FCFC;stroke:#000000;stroke-width:3;stroke-linecap:round;stroke-linejoin:round;stroke-miterlimit:10;}
	.st17{fill:#E1F9F7;stroke:#000000;stroke-width:3;stroke-linecap:round;stroke-linejoin:round;stroke-miterlimit:10;}
	.st18{fill:#A4EDE6;stroke:#000000;stroke-width:3;stroke-linecap:round;stroke-linejoin:round;stroke-miterlimit:10;}
	.st19{fill:#FFDD64;stroke:#000000;stroke-width:3;stroke-linecap:round;stroke-linejoin:round;stroke-miterlimit:10;}
	.st20{fill:none;stroke:#000000;stroke-width:3;stroke-linecap:round;stroke-linejoin:round;stroke-miterlimit:10;}
	.st21{fill:#FC3A52;stroke:#000000;stroke-width:3;stroke-linecap:round;stroke-linejoin:round;stroke-miterlimit:10;}
	.st22{fill:none;stroke:#000000;stroke-width:2;stroke-linecap:round;stroke-linejoin:round;stroke-miterlimit:10;}
	.st23{fill:#D6F4F0;stroke:#000000;stroke-width:2;stroke-linecap:round;stroke-linejoin:round;stroke-miterlimit:10;}
	.st24{fill:#A4EDE6;stroke:#000000;stroke-width:2;stroke-linecap:round;stroke-linejoin:round;stroke-miterlimit:10;}
	.st25{fill:#E1F9F7;stroke:#000000;stroke-width:2;stroke-linecap:round;stroke-linejoin:round;stroke-miterlimit:10;}
	.st26{fill:#FC3A52;stroke:#000000;stroke-width:2;stroke-linecap:round;stroke-linejoin:round;stroke-miterlimit:10;}
	.st27{fill:#BAEBE5;stroke:#000000;stroke-width:2;stroke-linecap:round;stroke-linejoin:round;stroke-miterlimit:10;}
	.st28{fill:#FABEA3;stroke:#000000;stroke-width:2;stroke-linecap:round;stroke-linejoin:round;stroke-miterlimit:10;}
	.st29{fill:#FFC8B3;stroke:#000000;stroke-width:2;stroke-linecap:round;stroke-linejoin:round;stroke-miterlimit:10;}
	.st30{fill:#2A8FE7;stroke:#000000;stroke-width:2;stroke-linecap:round;stroke-linejoin:round;stroke-miterlimit:10;}
	.st31{fill:#EEBE71;stroke:#000000;stroke-width:2;stroke-linecap:round;stroke-linejoin:round;stroke-miterlimit:10;}
	.st32{display:inline;fill:none;stroke:#000000;stroke-width:2;stroke-linecap:round;stroke-linejoin:round;stroke-miterlimit:10;}
	.st33{fill:#888888;stroke:#000000;stroke-width:2;stroke-linecap:round;stroke-linejoin:round;stroke-miterlimit:10;}
	.st34{fill:#A3A3A3;stroke:#000000;stroke-width:2;stroke-linecap:round;stroke-linejoin:round;stroke-miterlimit:10;}
	.st35{fill:#FFDD64;stroke:#000000;stroke-width:2;stroke-linecap:round;stroke-linejoin:round;stroke-miterlimit:10;}
	.st36{fill:#FD7283;stroke:#000000;stroke-width:2;stroke-linecap:round;stroke-linejoin:round;stroke-miterlimit:10;}
	.st37{fill:#F2FCFC;stroke:#000000;stroke-width:2;stroke-linecap:round;stroke-linejoin:round;stroke-miterlimit:10;}
	.st38{fill:#333333;stroke:#000000;stroke-width:2;stroke-linecap:round;stroke-linejoin:round;stroke-miterlimit:10;}
	.st39{fill:#F4FBFB;stroke:#000000;stroke-width:2;stroke-linecap:round;stroke-linejoin:round;stroke-miterlimit:10;}
	.st40{fill:#838383;stroke:#000000;stroke-width:2;stroke-linecap:round;stroke-linejoin:round;stroke-miterlimit:10;}
	.st41{fill:#CBF5F1;stroke:#000000;stroke-width:2;stroke-linecap:round;stroke-linejoin:round;stroke-miterlimit:10;}
	
		.st42{display:inline;fill:#FFC8B3;stroke:#000000;stroke-width:2;stroke-linecap:round;stroke-linejoin:round;stroke-miterlimit:10;}
	
		.st43{display:inline;fill:#2A8FE7;stroke:#000000;stroke-width:2;stroke-linecap:round;stroke-linejoin:round;stroke-miterlimit:10;}
	.st44{fill:#FFC06D;stroke:#000000;stroke-width:2;stroke-linecap:round;stroke-linejoin:round;stroke-miterlimit:10;}
	
		.st45{display:inline;fill:#F2FCFC;stroke:#000000;stroke-width:2;stroke-linecap:round;stroke-linejoin:round;stroke-miterlimit:10;}
	.st46{fill:#FFDD64;}
	
		.st47{display:inline;fill:#D6F4F0;stroke:#000000;stroke-width:2;stroke-linecap:round;stroke-linejoin:round;stroke-miterlimit:10;}
	
		.st48{display:inline;fill:#FC3A52;stroke:#000000;stroke-width:2;stroke-linecap:round;stroke-linejoin:round;stroke-miterlimit:10;}
	
		.st49{display:inline;fill:#FD7283;stroke:#000000;stroke-width:2;stroke-linecap:round;stroke-linejoin:round;stroke-miterlimit:10;}
	.st50{fill:#2A8FE7;}
	.st51{fill:#0080CE;}
	.st52{fill:#6E5043;}
	.st53{fill:#4C3F3A;}
	.st54{fill:#FC3A52;}
	.st55{fill:#E41F45;}
	.st56{fill:#FFB89C;}
	.st57{fill:#F4A38A;}
	.st58{fill:#FFC8B3;}
	.st59{fill:#A4EDE6;}
	.st60{fill:#86E0D5;}
	.st61{fill:#E9FBF8;}
	.st62{fill:#C6F4EE;}
	.st63{fill:#D60041;}
	.st64{fill:#FD6175;}
	.st65{fill:#006CBC;}
	.st66{fill:#838383;}
	.st67{fill:#707070;}
	.st68{fill:#666868;}
	.st69{fill:#FFA5B0;}
	.st70{fill:#FD7283;}
	.st71{fill:#E1F9F7;}
	.st72{fill:#B6F1EB;}
	.st73{fill:#F2FCFC;}
	.st74{fill:#6BD1C8;}
	.st75{fill:#D7F9F8;}
	.st76{fill:#BAEBE5;}
	.st77{fill:#F4C738;}
	.st78{fill:none;}
	.st79{fill:#806561;}
</style><g class="st0" id="Layer_1"/><g class="st0" id="Layer_4"><rect class="st1" height="524" width="524" x="-188" y="-356"/></g><g class="st0" id="Filled"><g class="st2"><g><path class="st28" d="M30,53v-5.99L18,47v6L6.54,55.86C3.87,56.53,2,58.93,2,61.68V63h44v-1.32c0-2.75-1.87-5.15-4.54-5.82L30,53     z"/><path class="st29" d="M13,29v11c0,6.08,4.92,11,11,11h0c6.08,0,11-4.92,11-11V29c0-4.42-3.58-8-8-8c-1.95,0-4.05,0-6,0     C16.58,21,13,24.58,13,29z"/><path class="st28" d="M36,39h-1v-6h1c1.66,0,3,1.34,3,3v0C39,37.66,37.66,39,36,39z"/><path class="st28" d="M12,39h1v-6h-1c-1.66,0-3,1.34-3,3v0C9,37.66,10.34,39,12,39z"/><path class="st12" d="M35,31L35,31c-3.8,0-7.41-1.69-9.84-4.61L24,25l1.56,4.68C25.78,30.33,25.3,31,24.61,31h0     c-2.75,0-5.2-1.76-6.07-4.38L18,25v1c0,2.76-2.24,5-5,5h0v-6c0-3.31,2.69-6,6-6h10c3.31,0,6,2.69,6,6V31z"/><circle cx="30" cy="35" r="1"/><circle cx="18" cy="35" r="1"/><g><line class="st22" x1="22" x2="26" y1="45" y2="45"/></g></g><g><g><rect class="st33" height="5" transform="matrix(0.7071 0.7071 -0.7071 0.7071 21.4271 -38.78)" width="6" x="54.53" y="3.97"/><path class="st34" d="M60.71,13.19l-9.9-9.9c-1.56-1.56-4.09-1.56-5.66,0l0,0l15.56,15.56l0,0      C62.27,17.29,62.27,14.75,60.71,13.19z"/><path class="st33" d="M61.41,19.56L44.44,2.59c-0.78-0.78-2.05-0.78-2.83,0v0c-0.78,0.78-0.78,2.05,0,2.83l16.97,16.97      c0.78,0.78,2.05,0.78,2.83,0l0,0C62.2,21.6,62.2,20.34,61.41,19.56z"/></g><g><line class="st22" x1="47.27" x2="45.86" y1="16.73" y2="18.14"/><line class="st22" x1="50.81" x2="49.39" y1="20.26" y2="21.68"/><line class="st22" x1="54.34" x2="52.93" y1="23.8" y2="25.21"/><line class="st22" x1="40.2" x2="38.79" y1="9.66" y2="11.07"/><line class="st22" x1="43.74" x2="42.32" y1="13.19" y2="14.61"/></g><g><line class="st22" x1="44.8" x2="43.38" y1="22.74" y2="24.15"/><line class="st22" x1="48.33" x2="46.92" y1="26.27" y2="27.69"/><line class="st22" x1="51.87" x2="50.45" y1="29.81" y2="31.22"/><line class="st22" x1="37.73" x2="36.31" y1="15.67" y2="17.08"/><line class="st22" x1="34.19" x2="32.78" y1="12.13" y2="13.55"/><line class="st22" x1="41.26" x2="39.85" y1="19.2" y2="20.62"/></g></g></g></g><g class="st0" id="Flat"><g class="st2"><g><polygon class="st66" points="53.64,6.12 54,10 57.88,10.36 61.41,6.83 57.17,2.59    "/><g><polygon class="st67" points="61.41,6.83 57.88,10.36 54,10 59.29,4.71     "/></g></g><path class="st67" d="M50.81,3.29l9.9,9.9c1.56,1.56,1.56,4.09,0,5.66l0,0L51,13l-5.85-9.71l0,0C46.71,1.73,49.25,1.73,50.81,3.29    z"/><g><path class="st68" d="M60.71,13.19c1.56,1.56,1.56,4.09,0,5.66h0L51,13l4.76-4.76L60.71,13.19z"/></g><path class="st66" d="M44.44,2.59l16.97,16.97c0.78,0.78,0.78,2.05,0,2.83l0,0c-0.78,0.78-2.05,0.78-2.83,0L41.62,5.41    c-0.78-0.78-0.78-2.05,0-2.83v0C42.4,1.8,43.66,1.8,44.44,2.59z"/><g><path class="st67" d="M61.41,19.56c0.78,0.78,0.78,2.05,0,2.83c-0.78,0.78-2.05,0.78-2.83,0L50.1,13.9l2.83-2.83L61.41,19.56z"/></g><g><path class="st56" d="M30,53v-5.99L18,47v6L6.54,55.86C3.87,56.53,2,58.93,2,61.68V63h44v-1.32c0-2.75-1.87-5.15-4.54-5.82L30,53     z"/><g><path class="st57" d="M46,61.68c0-2.75-1.87-5.15-4.54-5.82L30,53v-5.99l-6,0v16h22V61.68z"/></g><path class="st57" d="M36,39h-3v-6h3c1.66,0,3,1.34,3,3v0C39,37.66,37.66,39,36,39z"/><path class="st56" d="M12,39h4v-6h-4c-1.66,0-3,1.34-3,3v0C9,37.66,10.34,39,12,39z"/><path class="st58" d="M13,31v9c0,6.08,4.92,11,11,11h0c6.08,0,11-4.92,11-11v-9l-4-6l-7-4l-8,3L13,31z"/><g><path class="st56" d="M31,25l-7-4v30c6.08,0,11-4.92,11-11v-9L31,25z"/></g><path class="st52" d="M35,31L35,31c-3.8,0-7.41-1.69-9.84-4.61L24,25l1.56,4.68C25.78,30.33,25.3,31,24.61,31h0     c-2.75,0-5.2-1.76-6.07-4.38L18,25v1c0,2.76-2.24,5-5,5h0v-6c0-3.31,2.69-6,6-6h10c3.31,0,6,2.69,6,6V31z"/><g><path class="st53" d="M24.61,31c0.68,0,1.16-0.67,0.95-1.32L24,25v5.95C24.2,30.97,24.4,31,24.61,31z"/></g><g><path class="st53" d="M29,19h-5v6l1.16,1.39C27.59,29.31,31.2,31,35,31v-6C35,21.69,32.31,19,29,19z"/></g><circle class="st53" cx="30" cy="35" r="1"/><circle class="st52" cx="18" cy="35" r="1"/><g><g><path class="st52" d="M26,46h-4c-0.55,0-1-0.45-1-1s0.45-1,1-1h4c0.55,0,1,0.45,1,1S26.55,46,26,46z"/></g></g><g><path class="st53" d="M26,44h-2v2h2c0.55,0,1-0.45,1-1S26.55,44,26,44z"/></g></g><path class="st59" d="M44.86,18.14c0,0.26,0.1,0.51,0.29,0.71c0.39,0.39,1.02,0.39,1.41,0l1.42-1.41c0.39-0.39,0.39-1.02,0-1.41    c-0.39-0.39-1.02-0.39-1.41,0l-1.42,1.41C44.96,17.63,44.86,17.89,44.86,18.14z"/><path class="st60" d="M45.15,18.85c0.39,0.39,1.02,0.39,1.41,0l1.42-1.41c0.39-0.39,0.39-1.02,0-1.41L45.15,18.85z"/><path class="st60" d="M49.39,22.68c-0.26,0-0.51-0.1-0.71-0.29c-0.39-0.39-0.39-1.02,0-1.41l1.41-1.41c0.39-0.39,1.02-0.39,1.41,0    s0.39,1.02,0,1.41l-1.41,1.41C49.91,22.58,49.65,22.68,49.39,22.68z"/><path class="st60" d="M52.93,26.21c-0.26,0-0.51-0.1-0.71-0.29c-0.39-0.39-0.39-1.02,0-1.41l1.41-1.41c0.39-0.39,1.02-0.39,1.41,0    s0.39,1.02,0,1.41l-1.41,1.41C53.44,26.12,53.18,26.21,52.93,26.21z"/><path class="st59" d="M38.79,12.07c-0.26,0-0.51-0.1-0.71-0.29c-0.39-0.39-0.39-1.02,0-1.41l1.41-1.41c0.39-0.39,1.02-0.39,1.41,0    s0.39,1.02,0,1.41l-1.41,1.41C39.3,11.97,39.04,12.07,38.79,12.07z"/><path class="st59" d="M42.32,15.61c-0.26,0-0.51-0.1-0.71-0.29c-0.39-0.39-0.39-1.02,0-1.41l1.41-1.41c0.39-0.39,1.02-0.39,1.41,0    s0.39,1.02,0,1.41l-1.41,1.41C42.83,15.51,42.58,15.61,42.32,15.61z"/><g><g><path class="st60" d="M43.38,25.15c-0.26,0-0.51-0.1-0.71-0.29c-0.39-0.39-0.39-1.02,0-1.41l1.41-1.41      c0.39-0.39,1.02-0.39,1.41,0s0.39,1.02,0,1.41l-1.41,1.41C43.89,25.05,43.64,25.15,43.38,25.15z"/></g><g><path class="st60" d="M46.92,28.69c-0.26,0-0.51-0.1-0.71-0.29c-0.39-0.39-0.39-1.02,0-1.41l1.41-1.42      c0.39-0.39,1.02-0.39,1.41,0c0.39,0.39,0.39,1.02,0,1.41l-1.41,1.42C47.43,28.59,47.17,28.69,46.92,28.69z"/></g><g><path class="st60" d="M50.45,32.22c-0.26,0-0.51-0.1-0.71-0.29c-0.39-0.39-0.39-1.02,0-1.41l1.41-1.41      c0.39-0.39,1.02-0.39,1.41,0s0.39,1.02,0,1.41l-1.41,1.41C50.97,32.13,50.71,32.22,50.45,32.22z"/></g><g><path class="st59" d="M36.31,18.08c-0.26,0-0.51-0.1-0.71-0.29c-0.39-0.39-0.39-1.02,0-1.41l1.41-1.41      c0.39-0.39,1.02-0.39,1.41,0s0.39,1.02,0,1.41l-1.41,1.41C36.82,17.98,36.57,18.08,36.31,18.08z"/></g><g><path class="st59" d="M32.78,14.55c-0.26,0-0.51-0.1-0.71-0.29c-0.39-0.39-0.39-1.02,0-1.41l1.41-1.41      c0.39-0.39,1.02-0.39,1.41,0s0.39,1.02,0,1.41l-1.41,1.41C33.29,14.45,33.03,14.55,32.78,14.55z"/></g><g><path class="st59" d="M39.85,21.62c-0.26,0-0.51-0.1-0.71-0.29c-0.39-0.39-0.39-1.02,0-1.41l1.41-1.41      c0.39-0.39,1.02-0.39,1.41,0s0.39,1.02,0,1.41l-1.41,1.41C40.36,21.52,40.1,21.62,39.85,21.62z"/></g></g></g></g><g id="Line"><g><g><g><g><path class="st22" d="M18,49.21V53L6.54,55.86C3.87,56.53,2,58.93,2,61.68V63h44v-1.32c0-2.75-1.87-5.15-4.54-5.82L30,53v-3.79       "/></g><path class="st22" d="M35,33h2c1.1,0,2,0.9,2,2v2c0,1.1-0.9,2-2,2h-2"/><path class="st22" d="M13,33h-2c-1.1,0-2,0.9-2,2v2c0,1.1,0.9,2,2,2h2"/><path class="st22" d="M35,31L35,31c-3.8,0-7.41-1.69-9.84-4.61L24,25l1.56,4.68C25.78,30.33,25.3,31,24.61,31h0      c-2.75,0-5.2-1.76-6.07-4.38L18,25v1c0,2.76-2.24,5-5,5h0v-6c0-3.31,2.69-6,6-6h10c3.31,0,6,2.69,6,6V31z"/><circle cx="30" cy="35" r="1"/><circle cx="18" cy="35" r="1"/><g><line class="st22" x1="22" x2="26" y1="45" y2="45"/></g></g><g><g><polyline class="st22" points="53.64,6.12 57.17,2.59 61.41,6.83 57.88,10.36      "/><path class="st22" d="M60.71,18.85L60.71,18.85c1.56-1.56,1.56-4.09,0-5.66l-9.9-9.9c-1.56-1.56-4.09-1.56-5.66,0l0,0"/><path class="st22" d="M61.41,19.56L44.44,2.59c-0.78-0.78-2.05-0.78-2.83,0v0c-0.78,0.78-0.78,2.05,0,2.83l16.97,16.97       c0.78,0.78,2.05,0.78,2.83,0l0,0C62.2,21.6,62.2,20.34,61.41,19.56z"/></g><g><line class="st22" x1="47.27" x2="45.86" y1="16.73" y2="18.14"/><line class="st22" x1="50.81" x2="49.39" y1="20.26" y2="21.68"/><line class="st22" x1="54.34" x2="52.93" y1="23.8" y2="25.21"/><line class="st22" x1="40.2" x2="38.79" y1="9.66" y2="11.07"/><line class="st22" x1="43.74" x2="42.32" y1="13.19" y2="14.61"/></g><g><line class="st22" x1="44.8" x2="43.38" y1="22.74" y2="24.15"/><line class="st22" x1="48.33" x2="46.92" y1="26.27" y2="27.69"/><line class="st22" x1="51.87" x2="50.45" y1="29.81" y2="31.22"/><line class="st22" x1="37.73" x2="36.31" y1="15.67" y2="17.08"/><line class="st22" x1="34.19" x2="32.78" y1="12.13" y2="13.55"/><line class="st22" x1="41.26" x2="39.85" y1="19.2" y2="20.62"/></g></g></g><path class="st22" d="M13,31v9c0,6.08,4.92,11,11,11s11-4.92,11-11v-9"/></g></g><g class="st0" id="Solid"><g class="st2"><path d="M41.46,55.86L30,53v-2.48C28.2,51.46,26.16,52,24,52s-4.2-0.54-6-1.48V53L6.54,55.86C3.87,56.53,2,58.93,2,61.68V63h44    v-1.32C46,58.93,44.13,56.53,41.46,55.86z"/><path d="M38,32h-1v6h1c1.1,0,2-0.9,2-2v-2C40,32.9,39.1,32,38,32z"/><path d="M10,38h1v-6h-1c-1.1,0-2,0.9-2,2v2C8,37.1,8.9,38,10,38z"/><path d="M46.57,17.85l1.41-1.42c0.39-0.39,0.39-1.02,0-1.41c-0.39-0.39-1.02-0.39-1.41,0l-1.41,1.42c-0.39,0.39-0.39,1.02,0,1.41    c0.2,0.2,0.45,0.29,0.71,0.29S46.37,18.04,46.57,17.85z"/><path d="M51.51,19.97c0.39-0.39,0.39-1.02,0-1.41s-1.02-0.39-1.41,0l-1.41,1.41c-0.39,0.39-0.39,1.02,0,1.41    c0.2,0.2,0.45,0.29,0.71,0.29s0.51-0.1,0.71-0.29L51.51,19.97z"/><path d="M53.64,22.09l-1.41,1.41c-0.39,0.39-0.39,1.02,0,1.41c0.2,0.2,0.45,0.29,0.71,0.29s0.51-0.1,0.71-0.29l1.41-1.41    c0.39-0.39,0.39-1.02,0-1.41S54.03,21.7,53.64,22.09z"/><path d="M38.79,11.07c0.26,0,0.51-0.1,0.71-0.29l1.41-1.41c0.39-0.39,0.39-1.02,0-1.41c-0.39-0.39-1.02-0.39-1.41,0l-1.41,1.41    c-0.39,0.39-0.39,1.02,0,1.41C38.27,10.97,38.53,11.07,38.79,11.07z"/><path d="M43.03,11.49l-1.41,1.41c-0.39,0.39-0.39,1.02,0,1.41c0.2,0.2,0.45,0.29,0.71,0.29s0.51-0.1,0.71-0.29l1.41-1.41    c0.39-0.39,0.39-1.02,0-1.41S43.42,11.09,43.03,11.49z"/><path d="M44.09,21.03l-1.41,1.41c-0.39,0.39-0.39,1.02,0,1.41c0.2,0.2,0.45,0.29,0.71,0.29s0.51-0.1,0.71-0.29l1.41-1.41    c0.39-0.39,0.39-1.02,0-1.41S44.48,20.64,44.09,21.03z"/><path d="M47.63,24.57l-1.41,1.42c-0.39,0.39-0.39,1.02,0,1.41c0.2,0.2,0.45,0.29,0.71,0.29s0.51-0.1,0.71-0.29l1.41-1.42    c0.39-0.39,0.39-1.02,0-1.41C48.65,24.18,48.02,24.18,47.63,24.57z"/><path d="M51.16,28.1l-1.41,1.41c-0.39,0.39-0.39,1.02,0,1.41c0.2,0.2,0.45,0.29,0.71,0.29s0.51-0.1,0.71-0.29l1.41-1.41    c0.39-0.39,0.39-1.02,0-1.41S51.55,27.71,51.16,28.1z"/><path d="M36.31,17.08c0.26,0,0.51-0.1,0.71-0.29l1.41-1.41c0.39-0.39,0.39-1.02,0-1.41s-1.02-0.39-1.41,0l-1.41,1.41    c-0.39,0.39-0.39,1.02,0,1.41C35.8,16.98,36.06,17.08,36.31,17.08z"/><path d="M32.78,13.55c0.26,0,0.51-0.1,0.71-0.29l1.41-1.41c0.39-0.39,0.39-1.02,0-1.41s-1.02-0.39-1.41,0l-1.41,1.41    c-0.39,0.39-0.39,1.02,0,1.41C32.26,13.45,32.52,13.55,32.78,13.55z"/><path d="M40.55,17.5l-1.41,1.41c-0.39,0.39-0.39,1.02,0,1.41c0.2,0.2,0.45,0.29,0.71,0.29s0.51-0.1,0.71-0.29l1.41-1.41    c0.39-0.39,0.39-1.02,0-1.41S40.95,17.11,40.55,17.5z"/><path d="M17,25v-1c0-0.49,0.36-0.91,0.84-0.99c0.49-0.08,0.95,0.21,1.11,0.67l0.54,1.62c0.74,2.21,2.79,3.69,5.12,3.69l-1.56-4.68    c-0.15-0.46,0.04-0.96,0.46-1.19c0.42-0.23,0.95-0.14,1.25,0.23l1.16,1.39C28.18,27.45,31.48,29,35,29v-5c0-3.31-2.69-6-6-6H19    c-3.31,0-6,2.69-6,6v5C15.21,29,17,27.21,17,25z"/><path d="M24,50c6.08,0,11-4.92,11-11v-8c-3.17,0-6.19-1.08-8.62-3.02l0.13,0.38c0.2,0.61,0.1,1.28-0.27,1.8    C25.86,30.69,25.25,31,24.61,31c-2.56,0-4.88-1.31-6.21-3.38c-0.97,2-3.03,3.38-5.4,3.38v8C13,45.08,17.92,50,24,50z M30,33    c0.55,0,1,0.45,1,1c0,0.55-0.45,1-1,1s-1-0.45-1-1C29,33.45,29.45,33,30,33z M22,43h4c0.55,0,1,0.45,1,1s-0.45,1-1,1h-4    c-0.55,0-1-0.45-1-1S21.45,43,22,43z M18,33c0.55,0,1,0.45,1,1c0,0.55-0.45,1-1,1s-1-0.45-1-1C17,33.45,17.45,33,18,33z"/><rect height="6" transform="matrix(0.7071 -0.7071 0.7071 0.7071 13.6847 42.5729)" width="3" x="56.73" y="1.77"/><path d="M60.71,12.19l-9.9-9.9c-1.32-1.32-3.32-1.51-4.85-0.61l15.36,15.36C62.22,15.51,62.02,13.51,60.71,12.19z"/><path d="M43.38,1.94c-0.59-0.59-1.54-0.59-2.12,0c-0.59,0.59-0.59,1.54,0,2.12l17.68,17.68c0.59,0.59,1.54,0.59,2.12,0    c0.59-0.59,0.59-1.54,0-2.12L43.38,1.94z"/></g></g></svg>