<?xml version="1.0" encoding="UTF-8"?>
<svg id="Layer_1" data-name="Layer 1" xmlns="http://www.w3.org/2000/svg" version="1.1" viewBox="0 0 100 100">
  <defs>
    <style>
      .cls-1 {
        fill: none;
      }

      .cls-1, .cls-2, .cls-3 {
        stroke-width: 0px;
      }

      .cls-2 {
        fill: #000;
      }

      .cls-3 {
        fill: #fff;
      }
    </style>
  </defs>
  <g>
    <circle class="cls-3" cx="65.8" cy="33.5" r="5.6"/>
    <path class="cls-2" d="M65.8,40.2c-3.7,0-6.8-3-6.8-6.8s3-6.8,6.8-6.8,6.8,3,6.8,6.8-3,6.8-6.8,6.8ZM65.8,29c-2.5,0-4.5,2-4.5,4.5s2,4.5,4.5,4.5,4.5-2,4.5-4.5-2-4.5-4.5-4.5Z"/>
  </g>
  <g>
    <circle class="cls-3" cx="48.9" cy="36.9" r="5.6"/>
    <path class="cls-2" d="M48.9,43.6c-3.7,0-6.8-3-6.8-6.8s3-6.8,6.8-6.8,6.8,3,6.8,6.8-3,6.8-6.8,6.8ZM48.9,32.3c-2.5,0-4.5,2-4.5,4.5s2,4.5,4.5,4.5,4.5-2,4.5-4.5c0-2.5-2-4.5-4.5-4.5Z"/>
  </g>
  <g>
    <circle class="cls-3" cx="71.4" cy="42.5" r="5.6"/>
    <path class="cls-2" d="M71.4,49.3c-3.7,0-6.8-3-6.8-6.8s3-6.8,6.8-6.8,6.8,3,6.8,6.8-3,6.8-6.8,6.8ZM71.4,38c-2.5,0-4.5,2-4.5,4.5s2,4.5,4.5,4.5,4.5-2,4.5-4.5-2-4.5-4.5-4.5Z"/>
  </g>
  <g>
    <circle class="cls-3" cx="53.4" cy="42.5" r="5.6"/>
    <path class="cls-2" d="M53.4,49.3c-3.7,0-6.8-3-6.8-6.8s3-6.8,6.8-6.8,6.8,3,6.8,6.8-3,6.8-6.8,6.8ZM53.4,38c-2.5,0-4.5,2-4.5,4.5s2,4.5,4.5,4.5,4.5-2,4.5-4.5-2-4.5-4.5-4.5Z"/>
  </g>
  <g>
    <circle class="cls-3" cx="62.4" cy="42.5" r="5.6"/>
    <path class="cls-2" d="M62.4,49.3c-3.7,0-6.8-3-6.8-6.8s3-6.8,6.8-6.8,6.8,3,6.8,6.8-3,6.8-6.8,6.8ZM62.4,38c-2.5,0-4.5,2-4.5,4.5s2,4.5,4.5,4.5,4.5-2,4.5-4.5c0-2.5-2-4.5-4.5-4.5Z"/>
  </g>
  <g>
    <circle class="cls-3" cx="44.4" cy="42.5" r="5.6"/>
    <path class="cls-2" d="M44.4,49.3c-3.7,0-6.8-3-6.8-6.8s3-6.8,6.8-6.8,6.8,3,6.8,6.8-3,6.8-6.8,6.8ZM44.4,38c-2.5,0-4.5,2-4.5,4.5s2,4.5,4.5,4.5,4.5-2,4.5-4.5c0-2.5-2-4.5-4.5-4.5Z"/>
  </g>
  <g>
    <circle class="cls-3" cx="66.9" cy="50.4" r="5.6"/>
    <path class="cls-2" d="M66.9,57.1c-3.7,0-6.8-3-6.8-6.8s3-6.8,6.8-6.8,6.8,3,6.8,6.8-3,6.8-6.8,6.8ZM66.9,45.9c-2.5,0-4.5,2-4.5,4.5s2,4.5,4.5,4.5,4.5-2,4.5-4.5-2-4.5-4.5-4.5Z"/>
  </g>
  <g>
    <path class="cls-3" d="M81.6,50.4c0,3.1-2.5,5.6-5.6,5.6s-5.6-2.5-5.6-5.6,2.5-5.6,5.6-5.6c3.1,0,5.6,2.5,5.6,5.6Z"/>
    <path class="cls-2" d="M75.9,57.1c-3.7,0-6.8-3-6.8-6.8s3-6.8,6.8-6.8,6.8,3,6.8,6.8c0,3.7-3,6.8-6.8,6.8ZM75.9,45.9c-2.5,0-4.5,2-4.5,4.5s2,4.5,4.5,4.5,4.5-2,4.5-4.5c0-2.5-2-4.5-4.5-4.5Z"/>
  </g>
  <g>
    <circle class="cls-3" cx="39.9" cy="50.4" r="5.6"/>
    <path class="cls-2" d="M39.9,57.1c-3.7,0-6.8-3-6.8-6.8s3-6.8,6.8-6.8,6.8,3,6.8,6.8-3,6.8-6.8,6.8ZM39.9,45.9c-2.5,0-4.5,2-4.5,4.5s2,4.5,4.5,4.5,4.5-2,4.5-4.5-2-4.5-4.5-4.5Z"/>
  </g>
  <g>
    <circle class="cls-3" cx="48.9" cy="50.4" r="5.6"/>
    <path class="cls-2" d="M48.9,57.1c-3.7,0-6.8-3-6.8-6.8s3-6.8,6.8-6.8,6.8,3,6.8,6.8-3,6.8-6.8,6.8ZM48.9,45.9c-2.5,0-4.5,2-4.5,4.5s2,4.5,4.5,4.5,4.5-2,4.5-4.5c0-2.5-2-4.5-4.5-4.5Z"/>
  </g>
  <g>
    <circle class="cls-3" cx="57.9" cy="50.4" r="5.6"/>
    <path class="cls-2" d="M57.9,57.1c-3.7,0-6.8-3-6.8-6.8s3-6.8,6.8-6.8,6.8,3,6.8,6.8-3,6.8-6.8,6.8ZM57.9,45.9c-2.5,0-4.5,2-4.5,4.5s2,4.5,4.5,4.5,4.5-2,4.5-4.5c0-2.5-2-4.5-4.5-4.5Z"/>
  </g>
  <g>
    <g>
      <path class="cls-1" d="M84.9,65.8H28.6v-9h55.3c.3,0,.6.1.8.3.2.2.3.5.3.8v7.9Z"/>
      <path class="cls-2" d="M86.1,66.9H27.5v-11.3h55.2c1.9,0,3.4,1.5,3.4,3.4v7.9h0ZM29.7,64.7h54.1v-5.6c0-.6-.5-1.1-1.1-1.1H29.7v6.8Z"/>
    </g>
    <g>
      <path class="cls-1" d="M79.6,84.9h-45.6c-1.1,0-2.1-.9-2.2-2l-2-17.2h54.1l-2,17.2c-.1,1.1-1.1,2-2.2,2Z"/>
      <path class="cls-2" d="M79.6,86.1h-45.6c-1.7,0-3.2-1.3-3.4-3l-2.2-18.4h56.6l-2.2,18.4c-.2,1.7-1.6,3-3.4,3ZM31,66.9l1.9,15.9c0,.6.5,1,1.1,1h45.6c.6,0,1.1-.4,1.1-1l1.9-15.9H31Z"/>
    </g>
  </g>
  <g>
    <path class="cls-1" d="M36,74.8h-18.2c-.8,0-1.5-1-2-2.3-.5-1.1-.7-2.3-.7-3.1V19.6h23.7v51.6c0,.4-.1.9-.3,1.4-.5,1.2-1.4,2.3-2.5,2.3Z"/>
    <path class="cls-2" d="M33.1,75.9h-12.4c-3.7,0-6.8-3-6.8-6.8V18.4h25.9v50.7c0,3.7-3,6.8-6.8,6.8ZM16.2,20.7v48.5c0,2.5,2,4.5,4.5,4.5h12.4c2.5,0,4.5-2,4.5-4.5V20.7h-21.4Z"/>
  </g>
  <g>
    <rect class="cls-1" x="15.1" y="15.1" width="23.7" height="4.5"/>
    <path class="cls-2" d="M39.9,20.7H13.9v-6.8h25.9v6.8h0ZM16.2,18.4h21.4v-2.3h-21.4v2.3Z"/>
  </g>
  <g>
    <path class="cls-1" d="M61.3,74.8h-10.2c-.2,0-.4,0-.6-.2-.3-.2-.5-.5-.5-.9v-2.3c0-.3.1-.6.3-.8.2-.2.5-.3.8-.3h10.2c.3,0,.6.1.8.3.2.2.3.5.3.8v2.3c0,.3-.1.5-.3.7-.2.2-.5.4-.8.4Z"/>
    <path class="cls-2" d="M60.1,75.9h-7.9c-1.9,0-3.4-1.5-3.4-3.4s1.5-3.4,3.4-3.4h7.9c1.9,0,3.4,1.5,3.4,3.4s-1.5,3.4-3.4,3.4ZM52.3,71.4c-.6,0-1.1.5-1.1,1.1s.5,1.1,1.1,1.1h7.9c.6,0,1.1-.5,1.1-1.1s-.5-1.1-1.1-1.1h-7.9Z"/>
  </g>
  <path class="cls-2" d="M40.4,24.1h-2.8v-7.9h2.8c2.2,0,3.9,1.8,3.9,3.9s-1.8,3.9-3.9,3.9ZM39.9,21.8h.6c.9,0,1.7-.8,1.7-1.7s-.8-1.7-1.7-1.7h-.6v3.4Z"/>
  <g>
    <rect class="cls-1" x="15.1" y="26.3" width="23.7" height="6.8"/>
    <path class="cls-2" d="M39.9,34.2H13.9v-9h25.9v9h0ZM16.2,32h21.4v-4.5h-21.4v4.5Z"/>
  </g>
  <g>
    <rect class="cls-1" x="19.6" y="42.1" width="14.7" height="13.5"/>
    <path class="cls-2" d="M35.3,56.8h-16.9v-15.8h16.9v15.8ZM20.7,54.5h12.4v-11.3h-12.4v11.3Z"/>
  </g>
  <g>
    <path class="cls-3" d="M32,30.3c0,2.8-2.3,5.1-5.1,5.1s-5.1-2.3-5.1-5.1,2.3-5.1,5.1-5.1,5.1,2.3,5.1,5.1Z"/>
    <path class="cls-2" d="M26.9,36.5c-3.4,0-6.2-2.8-6.2-6.2s2.8-6.2,6.2-6.2,6.2,2.8,6.2,6.2c0,3.4-2.8,6.2-6.2,6.2ZM26.9,26.3c-2.2,0-3.9,1.8-3.9,3.9s1.8,3.9,3.9,3.9,3.9-1.8,3.9-3.9c0-2.2-1.8-3.9-3.9-3.9Z"/>
  </g>
  <rect class="cls-2" x="13.9" y="36.5" width="5.6" height="2.3"/>
  <rect class="cls-2" x="13.9" y="59" width="5.6" height="2.3"/>
  <rect class="cls-2" x="34.2" y="36.5" width="5.6" height="2.3"/>
  <rect class="cls-2" x="34.2" y="59" width="5.6" height="2.3"/>
</svg>