<?xml version="1.0" encoding="UTF-8"?>
<svg id="Layer_1" data-name="Layer 1" xmlns="http://www.w3.org/2000/svg" version="1.1" viewBox="0 0 256 256">
  <defs>
    <style>
      .cls-1 {
        fill: #000;
        stroke-width: 0px;
      }
    </style>
  </defs>
  <path class="cls-1" d="M128,36.2c-1.4,0-2.5-1.1-2.5-2.5v-14.2c0-1.4,1.1-2.5,2.5-2.5s2.5,1.1,2.5,2.5v14.2c0,1.4-1.1,2.5-2.5,2.5Z"/>
  <path class="cls-1" d="M128,168.4c-1.4,0-2.5-1.1-2.5-2.5v-14.2c0-1.4,1.1-2.5,2.5-2.5s2.5,1.1,2.5,2.5v14.2c0,1.4-1.1,2.5-2.5,2.5Z"/>
  <path class="cls-1" d="M201.2,95.2h-14.2c-1.4,0-2.5-1.1-2.5-2.5s1.1-2.5,2.5-2.5h14.2c1.4,0,2.5,1.1,2.5,2.5s-1.1,2.5-2.5,2.5Z"/>
  <path class="cls-1" d="M69,95.2h-14.2c-1.4,0-2.5-1.1-2.5-2.5s1.1-2.5,2.5-2.5h14.2c1.4,0,2.5,1.1,2.5,2.5s-1.1,2.5-2.5,2.5Z"/>
  <path class="cls-1" d="M128,180c-12.3,0-24.6-1.5-36.8-4.6-1.3-.3-2.2-1.7-1.8-3,.3-1.3,1.7-2.2,3-1.8,23.6,5.9,47.5,5.9,71.1,0,1.3-.3,2.7.5,3,1.8.3,1.3-.5,2.7-1.8,3-12.2,3.1-24.5,4.6-36.8,4.6Z"/>
  <path class="cls-1" d="M138.8,239c-1.4,0-2.5-1.1-2.5-2.5v-37.2c0-8.1,5.8-15.1,13.8-16.6l3-.6c5.6-1.1,9.7-6,9.7-11.7s1.1-2.5,2.5-2.5,2.5,1.1,2.5,2.5c0,8.1-5.8,15.1-13.8,16.6l-3,.6c-5.6,1.1-9.7,6-9.7,11.7v37.2c0,1.4-1.1,2.5-2.5,2.5Z"/>
  <path class="cls-1" d="M117.2,239c-1.4,0-2.5-1.1-2.5-2.5v-37.2c0-5.7-4.1-10.7-9.7-11.7l-3-.6c-8-1.5-13.8-8.5-13.8-16.6s1.1-2.5,2.5-2.5,2.5,1.1,2.5,2.5c0,5.7,4.1,10.7,9.7,11.7l3,.6c8,1.5,13.8,8.5,13.8,16.6v37.2c0,1.4-1.1,2.5-2.5,2.5Z"/>
  <path class="cls-1" d="M176.7,57.4c-.7,0-1.3-.3-1.8-.7l-10.4-10.4c-1-1-1-2.6,0-3.5,1-1,2.6-1,3.5,0l8.6,8.6,15.9-15.9c1-1,2.6-1,3.5,0,1,1,1,2.6,0,3.5l-17.7,17.7c-.5.5-1.1.7-1.8.7Z"/>
  <g>
    <path class="cls-1" d="M199.4,76.1c-1.4.3-2.2,1.6-2,2.9.9,4.5,1.3,9.1,1.3,13.6,0,39-31.7,70.7-70.7,70.7s-70.7-31.7-70.7-70.7S89,22,128,22s11.9.8,17.7,2.2c1.3.3,2.7-.5,3-1.8.3-1.3-.5-2.7-1.8-3-6.2-1.6-12.5-2.4-18.9-2.4-41.8,0-75.7,34-75.7,75.7s34,75.7,75.7,75.7,75.7-34,75.7-75.7-.5-9.8-1.4-14.6c-.3-1.4-1.6-2.2-2.9-2Z"/>
    <path class="cls-1" d="M180.4,74.6c17.1,0,30.9-13.9,30.9-31s-13.9-31-30.9-31-30.9,13.9-30.9,31,13.9,31,30.9,31ZM180.4,17.7c14.3,0,25.9,11.6,25.9,26s-11.6,26-25.9,26-25.9-11.6-25.9-26,11.6-26,25.9-26Z"/>
    <path class="cls-1" d="M128,42.4c-4.1,0-7.5,3.4-7.5,7.5v33.7c-.6.5-1.1,1-1.6,1.6h-24.5c-4.1,0-7.5,3.4-7.5,7.5s3.4,7.5,7.5,7.5h24.5c2.2,2.6,5.5,4.3,9.1,4.3,6.5,0,11.8-5.3,11.8-11.8s-1.7-7-4.3-9.1v-33.7c0-4.1-3.4-7.5-7.5-7.5ZM125.5,49.9c0-1.4,1.1-2.5,2.5-2.5s2.5,1.1,2.5,2.5v31.2c-.8-.2-1.6-.3-2.5-.3s-1.7,0-2.5.3v-31.2ZM94.4,95.2c-1.4,0-2.5-1.1-2.5-2.5s1.1-2.5,2.5-2.5h22.1c-.2.8-.3,1.6-.3,2.5s0,1.7.3,2.5h-22.1ZM128,99.5c-3.8,0-6.8-3.1-6.8-6.8s3.1-6.8,6.8-6.8,6.8,3.1,6.8,6.8-3.1,6.8-6.8,6.8Z"/>
  </g>
</svg>