<?xml version="1.0" ?><svg data-name="Layer 1" id="Layer_1" viewBox="0 0 64 64" xmlns="http://www.w3.org/2000/svg"><path d="M10.5938,12.4336a1.5,1.5,0,1,0,2.121,2.1211,3.7044,3.7044,0,0,1,5.1153,0,1.5,1.5,0,1,0,2.1211-2.1211,6.6154,6.6154,0,0,0-9.3574,0Zm-.878-2.1274a7.8579,7.8579,0,0,1,11.1133,0A1.5,1.5,0,1,0,22.95,8.1851a10.8568,10.8568,0,0,0-15.3555,0,1.5,1.5,0,1,0,2.1211,2.1211ZM46.5986,19.56a6.5477,6.5477,0,1,0-6.5468-6.5474A6.5551,6.5551,0,0,0,46.5986,19.56Zm0-10.0953a3.5477,3.5477,0,1,1-3.5468,3.5479A3.5522,3.5522,0,0,1,46.5986,9.4648Zm2.9776,11.1783H42.1055a5.6054,5.6054,0,0,0-4.584,2.3823L33.5654,28.66l-4.0185-.0586-.0655,0a4.4066,4.4066,0,0,0-3.164,1.3242c-.1018.1032-.1785.2223-.2688.333l-2.5711-9.7295A3.5,3.5,0,0,0,20.0908,17.91H11.2773a3.5043,3.5043,0,0,0-3.5,3.5V55.209a3.5043,3.5043,0,0,0,3.5,3.5H30.4766a3.5043,3.5043,0,0,0,3.5-3.5V45.0405a3.5043,3.5043,0,0,0-3.5-3.5H29.03l-1.1558-4.3736a4.5947,4.5947,0,0,0,1.6558.3272l6.3662-.0683a4.9931,4.9931,0,0,0,2.5771-.7572v16.954a5.3651,5.3651,0,0,0,9.2253,3.7339,5.3093,5.3093,0,0,0,9.1458-3.6812V27.9116A7.2768,7.2768,0,0,0,49.5762,20.6431ZM27.875,44.5405h2.6016a.5006.5006,0,0,1,.5.5V55.209a.5006.5006,0,0,1-.5.5H11.2773a.5007.5007,0,0,1-.5-.5V21.41a.5007.5007,0,0,1,.5-.5h8.8135a.5018.5018,0,0,1,.4854.3794l5.8486,22.1342A1.5,1.5,0,0,0,27.875,44.5405Zm1.6289-12.9394,4.8115.07a1.5527,1.5527,0,0,0,1.2491-.6382l4.4121-6.2837a2.604,2.604,0,0,1,2.1289-1.1059h7.4707a4.2735,4.2735,0,0,1,4.2685,4.2685V53.6753a2.32,2.32,0,1,1-4.6406,0V39.9917a1.5,1.5,0,1,0-3,0V53.6753a2.3139,2.3139,0,0,1-2.3574,2.32,2.3756,2.3756,0,0,1-2.3731-2.373V32.9562l1.0957-1.68a1.5,1.5,0,0,0-2.5136-1.6387L37.52,33.5278a2.015,2.015,0,0,1-1.6552.898l-6.3663.0683h-.0156a1.4466,1.4466,0,1,1,.0215-2.893Z"/></svg>