<?xml version="1.0" ?><svg style="enable-background:new 0 0 64 64;" version="1.1" viewBox="0 0 64 64" xml:space="preserve" xmlns="http://www.w3.org/2000/svg" xmlns:xlink="http://www.w3.org/1999/xlink"><g id="smart_lamp"/><g id="e-wallet"/><g id="virtual_reality"><g><path d="M55,32.5V22c0-10.5-8.5-19-19-19h-8C17.5,3,9,11.5,9,22v10.5c-1.2,1.1-2,2.7-2,4.5c0,3.3,2.7,6,6,6h0.1    c0.5,10,8.8,18,18.9,18s18.4-8,18.9-18H51c3.3,0,6-2.7,6-6C57,35.2,56.2,33.6,55,32.5z M11,22c0-9.4,7.6-17,17-17h8    c9.4,0,17,7.6,17,17v9.4c-0.6-0.2-1.3-0.4-2-0.4v-5c0,0,0-0.1,0-0.1c0-0.1,0-0.1,0-0.2c0-0.1-0.1-0.1-0.1-0.2    c0-0.1-0.1-0.1-0.1-0.2c0-0.1-0.1-0.1-0.2-0.1c0,0-0.1-0.1-0.1-0.1l-3.8-1.9c-2.9-1.5-6.5-1.2-9.2,0.6c-1.2,0.8-2.6,1.2-4,1.2    h-3.1c-1.4,0-2.8-0.4-4-1.2c-2.7-1.8-6.2-2-9.2-0.6l-3.8,1.9c0,0-0.1,0.1-0.1,0.1c-0.1,0-0.1,0.1-0.2,0.1c0,0-0.1,0.1-0.1,0.2    c0,0.1-0.1,0.1-0.1,0.2c0,0.1,0,0.1,0,0.2c0,0,0,0.1,0,0.1v5c-0.7,0-1.4,0.1-2,0.4V22z M15,32.7V32v-0.6l2,2v2.8L15,32.7z     M49,28.6l-2.2,2.2C46.3,29.8,45.2,29,44,29H20c-1.2,0-2.3,0.8-2.8,1.8L15,28.6v-2l3.2-1.6c2.3-1.1,5-1,7.2,0.4    c1.5,1,3.3,1.5,5.1,1.5h3.1c1.8,0,3.6-0.5,5.1-1.5c2.1-1.4,4.9-1.6,7.2-0.4l3.2,1.6V28.6z M19,32c0-0.6,0.4-1,1-1h24    c0.6,0,1,0.4,1,1v8c0,0.6-0.4,1-1,1h-7.5l-1.7-2.6C34.6,38.2,34.3,38,34,38h-4c-0.3,0-0.6,0.2-0.8,0.4L27.5,41H20    c-0.6,0-1-0.4-1-1V32z M47,33.4l2-2V32v0.7l-2,3.5V33.4z M9,37c0-2.2,1.8-4,4-4v8C10.8,41,9,39.2,9,37z M32,59    c-9.4,0-17-7.6-17-17v-5.2l2,3.6c0.2,1.5,1.4,2.7,3,2.7h8c0.3,0,0.6-0.2,0.8-0.4l1.7-2.6h2.9l1.7,2.6c0.2,0.3,0.5,0.4,0.8,0.4h8    c1.5,0,2.8-1.2,3-2.7l2-3.6V42C49,51.4,41.4,59,32,59z M51,41v-8c2.2,0,4,1.8,4,4S53.2,41,51,41z"/><path d="M36,51h-8c-0.6,0-1,0.4-1,1s0.4,1,1,1h8c0.6,0,1-0.4,1-1S36.6,51,36,51z"/></g></g><g id="payment"/><g id="cloud_storage"/><g id="security_camera"/><g id="smart_home"/><g id="connection"/><g id="game"/><g id="drone"/><g id="smart_car"/><g id="camera"/><g id="online_business"/><g id="smartwatch"/><g id="online_shopping"/><g id="smart_Television"/><g id="security"/><g id="communication"/><g id="remote_control"/><g id="satelite_dish"/></svg>