<?xml version="1.0" ?><!DOCTYPE svg  PUBLIC '-//W3C//DTD SVG 1.1//EN'  'http://www.w3.org/Graphics/SVG/1.1/DTD/svg11.dtd'><svg height="512px" style="enable-background:new 0 0 512 512;" version="1.1" viewBox="0 0 512 512" width="512px" xml:space="preserve" xmlns="http://www.w3.org/2000/svg" xmlns:xlink="http://www.w3.org/1999/xlink"><g id="_x39_11_x2C__returning_x2C__visiter_x2C__returning_visiter_x2C__digital"><g id="XMLID_31119_"><g id="XMLID_31128_"><path d="M267.12,246.235c-20.438,0-37.066-16.627-37.066-37.065s16.627-37.066,37.066-37.066     c20.438,0,37.065,16.628,37.065,37.066S287.558,246.235,267.12,246.235z M267.12,190.637c-10.219,0-18.533,8.314-18.533,18.533     s8.314,18.533,18.533,18.533c10.219,0,18.532-8.314,18.532-18.533S277.339,190.637,267.12,190.637z"/></g><g id="XMLID_31127_"><path d="M268.046,372.257c-71.533,0-129.729-57.364-129.729-127.875c0-70.511,58.197-127.876,129.729-127.876     c71.534,0,129.73,57.365,129.73,127.876C397.776,314.893,339.58,372.257,268.046,372.257z M268.046,135.038     c-61.314,0-111.196,49.051-111.196,109.344c0,60.291,49.882,109.343,111.196,109.343c61.314,0,111.197-49.052,111.197-109.343     C379.243,184.089,329.36,135.038,268.046,135.038z"/></g><g id="XMLID_31126_"><path d="M132.761,378.364c-2.449,0-4.894-0.964-6.715-2.879c-33.916-35.652-52.594-82.213-52.594-131.104     c0-105.728,87.295-191.744,194.594-191.744c5.118,0,9.267,4.148,9.267,9.266c0,5.118-4.148,9.267-9.267,9.267     c-97.08,0-176.062,77.702-176.062,173.211c0,44.115,16.865,86.138,47.489,118.329c3.527,3.709,3.381,9.573-0.327,13.101     C137.353,377.518,135.055,378.364,132.761,378.364z"/></g><g id="XMLID_31125_"><path d="M268.046,436.124c-0.066,0-0.135-0.001-0.201-0.002l-209.421-4.562c-5.117-0.112-9.174-4.35-9.063-9.467     c0.111-5.116,4.346-9.132,9.466-9.063l209.317,4.56c97.032-0.057,175.964-77.736,175.964-173.209     c0-55.231-25.846-105.873-70.91-138.939c-4.126-3.028-5.017-8.827-1.989-12.953c3.027-4.126,8.829-5.017,12.953-1.989     c23.813,17.473,43.551,40.429,57.083,66.387c14.197,27.235,21.396,56.672,21.396,87.495     C462.641,350.108,375.346,436.124,268.046,436.124z"/></g><g id="XMLID_31124_"><path d="M318.085,320.365H216.154c-5.118,0-9.266-4.149-9.266-9.267v-22.935c0-28.229,22.967-51.195,51.197-51.195h18.069     c28.23,0,51.197,22.966,51.197,51.195v22.935C327.352,316.216,323.202,320.365,318.085,320.365z M225.421,301.832h83.397v-13.668     c0-18.01-14.653-32.663-32.664-32.663h-18.069c-18.011,0-32.664,14.653-32.664,32.663V301.832z"/></g><g id="XMLID_31123_"><path d="M447.814,440.829h-83.397c-5.117,0-9.267-4.149-9.267-9.267s4.149-9.267,9.267-9.267h68.404l-2.562-5.123     c-2.288-4.577-0.434-10.144,4.145-12.432c4.574-2.289,10.144-0.434,12.432,4.145l9.267,18.533     c1.437,2.872,1.282,6.283-0.405,9.015C454.009,439.165,451.026,440.829,447.814,440.829z"/></g><g id="XMLID_31122_"><path d="M438.541,459.363c-1.393,0-2.807-0.314-4.137-0.98c-4.578-2.288-6.433-7.854-4.145-12.432l9.267-18.532     c2.289-4.579,7.854-6.435,12.432-4.145c4.578,2.288,6.434,7.854,4.145,12.432l-9.267,18.532     C445.213,457.486,441.939,459.363,438.541,459.363z"/></g><g id="XMLID_31121_"><path d="M364.418,125.774c-0.971,0-1.959-0.154-2.931-0.479c-4.855-1.618-7.479-6.866-5.861-11.721l9.267-27.799     c1.261-3.784,4.802-6.336,8.791-6.336h27.799c5.117,0,9.267,4.149,9.267,9.267s-4.149,9.267-9.267,9.267h-21.12l-7.154,21.463     C371.913,123.318,368.298,125.774,364.418,125.774z"/></g><g id="XMLID_31120_"><path d="M113.604,385.685c-4.677,0-8.696-3.529-9.203-8.284c-0.542-5.09,3.144-9.655,8.232-10.197l19.606-2.091l0.521-17.229     c0.152-5.02,4.27-8.985,9.257-8.985c0.096,0,0.19,0.001,0.286,0.004c5.116,0.155,9.137,4.428,8.982,9.543l-0.767,25.305     c-0.14,4.629-3.675,8.443-8.28,8.934l-27.642,2.947C114.264,385.667,113.932,385.685,113.604,385.685z"/></g></g></g><g id="Layer_1"/></svg>