<?xml version="1.0" ?><!DOCTYPE svg  PUBLIC '-//W3C//DTD SVG 1.1//EN'  'http://www.w3.org/Graphics/SVG/1.1/DTD/svg11.dtd'><svg height="40px" id="els2_x5F_navigation" style="enable-background:new 0 0 40 40;" version="1.1" viewBox="0 0 40 40" width="40px" xml:space="preserve" xmlns="http://www.w3.org/2000/svg" xmlns:xlink="http://www.w3.org/1999/xlink"><path d="M20,37.994  V2.01" style="fill-rule:evenodd;clip-rule:evenodd;fill:none;stroke:#000000;stroke-width:1.33;stroke-miterlimit:10;"/><path d="M13,16  v16.527c0,2.848-3.995,2.806-3.995,0 M13.308,13C14.79,13,16,14.166,16,15.646l0,0v6.997 M2.006,22.643V15.69  c0-1.482,1.209-2.69,2.691-2.69 M9.001,22.654v9.873c0,2.848-3.995,2.848-3.995,0V16" style="fill-rule:evenodd;clip-rule:evenodd;fill:none;stroke:#000000;stroke-width:1.33;stroke-miterlimit:10;"/><circle cx="9.041" cy="8.621" r="2.988" style="fill-rule:evenodd;clip-rule:evenodd;fill:none;stroke:#000000;stroke-width:1.33;stroke-miterlimit:10;"/><path d="  M32.669,16.565l2.784,8.48c0.175,0.37-0.148,0.952-0.601,0.952h-1.873v7.122c0,1.243-2.884,1.26-2.884,0" style="fill-rule:evenodd;clip-rule:evenodd;fill:none;stroke:#000000;stroke-width:1.33;stroke-miterlimit:10;"/><path d="M33.685,13  c0.234,0.081,0.434,0.199,0.604,0.347c0.336,0.293,0.553,0.702,0.68,1.157l2.327,7.169" style="fill-rule:evenodd;clip-rule:evenodd;fill:none;stroke:#000000;stroke-width:1.33;stroke-miterlimit:10;"/><path d="  M22.671,21.674l2.326-7.169c0.188-0.679,0.576-1.252,1.261-1.497" style="fill-rule:evenodd;clip-rule:evenodd;fill:none;stroke:#000000;stroke-width:1.33;stroke-miterlimit:10;"/><path d="M30,25  l0,8.12c0,1.26-2.982,1.243-2.982,0v-7.122h-2c-0.452,0-0.68-0.582-0.505-0.952l2.688-8.48" style="fill-rule:evenodd;clip-rule:evenodd;fill:none;stroke:#000000;stroke-width:1.33;stroke-miterlimit:10;"/><path d="  M29.988,5.693c1.65,0,2.989,1.339,2.989,2.989s-1.338,2.988-2.989,2.988S27,10.332,27,8.682S28.338,5.693,29.988,5.693L29.988,5.693  z" style="fill-rule:evenodd;clip-rule:evenodd;fill:none;stroke:#000000;stroke-width:1.33;stroke-miterlimit:10;"/></svg>