<svg xmlns="http://www.w3.org/2000/svg" width="35" height="35" viewBox="0 0 35 35">
  <g id="グループ_157" data-name="グループ 157" transform="translate(-121 -876)">
    <rect id="長方形_241" data-name="長方形 241" width="35" height="35" rx="17.5" transform="translate(121 876)" fill="none"/>
    <g id="グループ_61" data-name="グループ 61" transform="translate(129.646 887.015)">
      <path id="パス_621" data-name="パス 621" d="M17.975,2.007A2.3,2.3,0,0,0,16.352.384,54.823,54.823,0,0,0,9.179,0,54.823,54.823,0,0,0,2.007.384,2.3,2.3,0,0,0,.384,2.007,23.874,23.874,0,0,0,0,6.426a23.875,23.875,0,0,0,.384,4.419,2.3,2.3,0,0,0,1.623,1.623,54.82,54.82,0,0,0,7.172.384,54.82,54.82,0,0,0,7.172-.384,2.3,2.3,0,0,0,1.623-1.623,23.873,23.873,0,0,0,.384-4.419A24.015,24.015,0,0,0,17.975,2.007Z" transform="translate(0 0)" fill="#fff"/>
      <path id="パス_622" data-name="パス 622" d="M65.3,38.05l4.665-2.693L65.3,32.663Z" transform="translate(-57.898 -28.931)" fill="#142a26"/>
    </g>
  </g>
</svg>
