<svg xmlns="http://www.w3.org/2000/svg" width="36" height="35" viewBox="0 0 36 35">
  <g id="グループ_67" data-name="グループ 67" transform="translate(0.276)">
    <g id="グループ_64" data-name="グループ 64" transform="translate(8.79 8.812)">
      <g id="グループ_62" data-name="グループ 62">
        <path id="Path_700" data-name="Path 700" d="M15.173,10h8.013a5.144,5.144,0,0,1,5.173,5.173v8.013a5.144,5.144,0,0,1-5.173,5.173H15.173A5.144,5.144,0,0,1,10,23.186V15.173A5.144,5.144,0,0,1,15.173,10Zm8.013,17.361a4.147,4.147,0,0,0,4.175-4.175V15.173A4.147,4.147,0,0,0,23.186,11H15.173A4.147,4.147,0,0,0,11,15.173v8.013a4.147,4.147,0,0,0,4.175,4.175Z" transform="translate(-10 -10)" fill="#fff"/>
        <circle id="楕円形_4" data-name="楕円形 4" cx="0.719" cy="0.719" r="0.719" transform="translate(13.012 3.003)" fill="#fff"/>
      </g>
      <g id="グループ_63" data-name="グループ 63" transform="translate(4.658 4.658)">
        <path id="Ellipse_5" data-name="Ellipse 5" d="M3.311-1A4.311,4.311,0,1,1-1,3.311,4.316,4.316,0,0,1,3.311-1Zm0,7.665A3.353,3.353,0,1,0-.042,3.311,3.357,3.357,0,0,0,3.311,6.665Z" transform="translate(1 1)" fill="#fff"/>
      </g>
    </g>
    <rect id="長方形_243" data-name="長方形 243" width="36" height="35" rx="17.5" transform="translate(-0.276)" fill="none"/>
  </g>
</svg>
