<svg xmlns="http://www.w3.org/2000/svg" width="211.883" height="47.975" viewBox="0 0 211.883 47.975">
  <g id="Layer_1-2" transform="translate(0 -0.001)">
    <path id="パス_1" data-name="パス 1" d="M49.634,10.418l-1.94-1.859-.96,1h.694v18.5H30.66V24.041H43.4V13.584H30.823V9.56H44.875l-.96-.919L45.795,6.7l1.9,1.859,1.879-1.9,1.9,1.859-1.859,1.9Z" transform="translate(31.961 6.942)"/>
    <path id="パス_2" data-name="パス 2" d="M47.043,26.721l-4-.531L45.246,9.156l4,.531Zm12.541-1a25.707,25.707,0,0,1-5.923,2.819l-2.594.756V7.44H55.09v16.2a28.614,28.614,0,0,0,7.006-4.82l2.757,2.941A33.25,33.25,0,0,1,59.6,25.72Z" transform="translate(44.867 7.755)"/>
    <path id="パス_3" data-name="パス 3" d="M75.145,9.808Q73.49,20.561,64.585,29.946l-2.921-2.757q7.046-7.445,9.068-15.666H56.64V7.5H75.492l-.347,2.308Z" transform="translate(59.044 7.818)"/>
    <path id="パス_4" data-name="パス 4" d="M78.11,14.093,73.229,28.8l-3.8-1.287,4.453-13.419H70.962V10.069h4.269l1.1-3.329,3.8,1.266-.674,2.063h3.186v4.024H78.11Zm9.354,15.952c-4.534,0-7.823-1.307-9.926-3.921l3.145-2.512c1.43,1.736,4.085,2.553,7.986,2.39l.266,4c-.511.02-1,.061-1.471.061Zm-6.434-11.09V14.93h7.435v4.024Zm7.537-8.313-1.94-1.859-1.879,1.94-1.9-1.859,1.879-1.9,1.9,1.818,1.879-1.9,1.9,1.859-1.859,1.9Z" transform="translate(72.377 7.025)"/>
    <path id="パス_5" data-name="パス 5" d="M98.743,23.7a19.86,19.86,0,0,0-3.84-1.45v1.879a6.267,6.267,0,0,1-1.716,4.453,5.607,5.607,0,0,1-4.35,1.9,5.229,5.229,0,0,1-4-1.777A5.912,5.912,0,0,1,83.2,24.522a6.464,6.464,0,0,1,2.206-5.229,7.646,7.646,0,0,1,5.474-1.716V6.63H94.9v2.9h4.779v4.024H94.9v4.555a24.424,24.424,0,0,1,5.719,2l-1.879,3.574ZM90.88,21.6h-.531a3.184,3.184,0,0,0-2.247.756,2.742,2.742,0,0,0-.858,2.165,2.155,2.155,0,0,0,.449,1.307,1.365,1.365,0,0,0,1.144.613,1.821,1.821,0,0,0,1.471-.694,2.566,2.566,0,0,0,.572-1.634V21.6Z" transform="translate(86.732 6.911)"/>
    <path id="パス_6" data-name="パス 6" d="M97.36,19.732V8.315h4.024V19.732ZM106.633,30.9l-3.493-2.042q3.217-5.607,3.227-14.971a36.146,36.146,0,0,0-.531-6.495l3.942-.756a38.588,38.588,0,0,1,.613,7.251c0,7.006-1.266,12.684-3.758,17.014Z" transform="translate(101.493 6.921)"/>
    <path id="パス_7" data-name="パス 7" d="M40.379,10.476A21.37,21.37,0,0,0,31,3.654a20.523,20.523,0,0,0-5.658-1.287,22.218,22.218,0,0,0-6.372.327A21.377,21.377,0,0,0,13.889,4.43,21.612,21.612,0,0,0,7.68,8.964a20.967,20.967,0,0,0-4.493,7.046c-.1.286-.2.306-.449.123-.408-.306-.817-.633-1.225-.96-.49-.388-.98-.756-1.471-1.144,0,0-.041.02-.041.041C4.922,22.4,9.845,30.716,14.787,39.09a.437.437,0,0,0,.02-.388c-.163-.654-.327-1.307-.511-1.961a.4.4,0,0,1,.225-.551c.429-.2.837-.429,1.266-.654,3.023-1.654,5.944-3.472,8.823-5.331a5.05,5.05,0,0,1,5.515-.2,4.769,4.769,0,0,1,2.492,3.615,18.225,18.225,0,0,1-.1,4.35,4.986,4.986,0,0,1-4.064,4.473,18.307,18.307,0,0,1-3.656.327,53.558,53.558,0,0,1-6.27-.143,15.35,15.35,0,0,1-2.553-.347,6.706,6.706,0,0,1-4.146-3.145q-4.9-8.272-9.783-16.564c-.061-.082-.082-.2-.2-.245a.325.325,0,0,0-.061.266,18.572,18.572,0,0,0,.082,3.84A21.373,21.373,0,0,0,3.9,33.392a21.8,21.8,0,0,0,7.169,8.354,21.525,21.525,0,0,0,16.544,3.431,21.125,21.125,0,0,0,7.475-3.023,21.686,21.686,0,0,0,7.68-8.5,20.846,20.846,0,0,0,2.308-8.619,22.552,22.552,0,0,0-.858-7.169A21.436,21.436,0,0,0,40.4,10.476Zm-1.43,1.348a37.75,37.75,0,0,0-4.9.776A39.4,39.4,0,0,0,19.26,4.124,42.016,42.016,0,0,1,38.949,11.824ZM37.458,22.669a22.3,22.3,0,0,0-1.552-6.9.523.523,0,0,1,0-.429,7.067,7.067,0,0,0,.633-1.92c0-.1.02-.2.143-.225.143,0,.163.123.2.2a23.652,23.652,0,0,1,1.062,3.35,24.346,24.346,0,0,1,.654,6.189,26.19,26.19,0,0,1-1.716,8.742,34.757,34.757,0,0,1-1.532,3.452.994.994,0,0,1-.347.49c-.1-.163,0-.306.041-.429a29.3,29.3,0,0,0,1.634-4.657c.184-.735.347-1.471.47-2.247a24.556,24.556,0,0,0,.266-5.6Zm-3.615-9.906a42.647,42.647,0,0,0-2.594,4.167c-.041-1.1-.082-2.247-.184-3.329a.075.075,0,0,0-.02-.061h0a39.221,39.221,0,0,0-11.56-9.028,39.686,39.686,0,0,1,14.358,8.272Zm-9.089,3.247A69.541,69.541,0,0,0,18.321,4.246,39.427,39.427,0,0,1,30.7,13.539a34.959,34.959,0,0,0-5.944,2.471Zm3.738-1.43c.756-.286,1.532-.572,2.308-.817.082,1.082.143,2.185.184,3.268a31.958,31.958,0,0,0-2.512-2.471Zm5.78,17.075c-.123-.082-.061-.225-.061-.327a22.088,22.088,0,0,0-.306-4.922,17.617,17.617,0,0,0-2.819-6.577c-.286-.408-.286-.408.163-.572.633-.225.633-.225.96.347a18.725,18.725,0,0,1,1.471,3.329c1.1,2.962,1.083,7.618.592,8.7Zm7.455-10.212a24.025,24.025,0,0,1-.96,5.494,26.662,26.662,0,0,1-3.493,7.292,34.47,34.47,0,0,1-2.288,2.941c-.1.082-.143.2-.306.163a1.137,1.137,0,0,1,.306-.551,25.945,25.945,0,0,0,3.7-6.393A22.917,22.917,0,0,0,40.318,23.4a18.18,18.18,0,0,0-.082-3.8.874.874,0,0,1,.225-.858.7.7,0,0,1,1.164.388,7.3,7.3,0,0,1,.082,2.308Z" transform="translate(0 2.371)"/>
    <path id="パス_8" data-name="パス 8" d="M19.738.2A23.531,23.531,0,0,0,7.728,5.371a22.435,22.435,0,0,0-5.7,6.842c.368-.408.694-.837,1.062-1.246A23.845,23.845,0,0,1,19.82,2.654,23.754,23.754,0,0,1,34.056,6.31a23.685,23.685,0,0,1,8.149,8.6,24.046,24.046,0,0,1,1.43,20.261,23.365,23.365,0,0,0,.408-22.14A23.773,23.773,0,0,0,19.738.2Z" transform="translate(2.116 0)"/>
    <path id="パス_9" data-name="パス 9" d="M8.871,23.35s.184-.1.286-.143c1.45-.8,2.839-1.716,4.248-2.594,1.287-.817,2.573-1.654,3.942-2.349a4.1,4.1,0,0,1,3.86-.163c.061.041.143.1.245.02a.318.318,0,0,0-.123-.245,3.044,3.044,0,0,0-1.511-1,4.045,4.045,0,0,0-3.411.592c-1.062.715-2.145,1.368-3.268,2.063-1.328.776-2.655,1.573-3.983,2.349a1.051,1.051,0,0,0-.531,1.287v.061c.041.163.123.184.266.123Z" transform="translate(8.939 17.437)"/>
  </g>
</svg>
